# Made in Blockbench 5.0.7
mtllib chemical_bench.mtl

o base
v 0.5 0.0625 1.5
v 0.5 0.0625 -0.4375
v 0.5 0 1.5
v 0.5 0 -0.4375
v -0.5 0.0625 -0.4375
v -0.5 0.0625 1.5
v -0.5 0 -0.4375
v -0.5 0 1.5
vt 0.1171875 0.40625
vt 0.1796875 0.40625
vt 0.1796875 0.40234375
vt 0.1171875 0.40234375
vt 0.60546875 0.8515625
vt 0.7265625 0.8515625
vt 0.7265625 0.84765625
vt 0.60546875 0.84765625
vt 0.609375 0.99609375
vt 0.671875 0.99609375
vt 0.671875 0.9921875
vt 0.609375 0.9921875
vt 0.60546875 0.84765625
vt 0.7265625 0.84765625
vt 0.7265625 0.84375
vt 0.60546875 0.84375
vt 0.54296875 0.6640625
vt 0.48046875 0.6640625
vt 0.48046875 0.78515625
vt 0.54296875 0.78515625
vt 0.54296875 0.6640625
vt 0.48046875 0.6640625
vt 0.48046875 0.54296875
vt 0.54296875 0.54296875
vn 0 0 -1
vn 1 0 0
vn 0 0 1
vn -1 0 0
vn 0 1 0
vn 0 -1 0
usemtl chemical_bench
f 4/4/1 7/3/1 5/2/1 2/1/1
f 3/8/2 4/7/2 2/6/2 1/5/2
f 8/12/3 3/11/3 1/10/3 6/9/3
f 7/16/4 8/15/4 6/14/4 5/13/4
f 6/20/5 1/19/5 2/18/5 5/17/5
f 7/24/6 4/23/6 3/22/6 8/21/6
o outlets
v 0.5 1 -0.4375
v 0.5 1 -0.4625
v 0.5 0.75 -0.4375
v 0.5 0.75 -0.4625
v -0.5 1 -0.4625
v -0.5 1 -0.4375
v -0.5 0.75 -0.4625
v -0.5 0.75 -0.4375
vt 0.6015625 0.44921875
vt 0.6640625 0.44921875
vt 0.6640625 0.43359375
vt 0.6015625 0.43359375
vt 0.609375 0.59765625
vt 0.61328125 0.59765625
vt 0.61328125 0.58203125
vt 0.609375 0.58203125
vt 0.6015625 0.43359375
vt 0.6640625 0.43359375
vt 0.6640625 0.41796875
vt 0.6015625 0.41796875
vt 0.61328125 0.59765625
vt 0.6171875 0.59765625
vt 0.6171875 0.58203125
vt 0.61328125 0.58203125
vt 0.671875 0.94921875
vt 0.609375 0.94921875
vt 0.609375 0.953125
vt 0.671875 0.953125
vt 0.671875 0.94921875
vt 0.609375 0.94921875
vt 0.609375 0.9453125
vt 0.671875 0.9453125
vn 0 0 -1
vn 1 0 0
vn 0 0 1
vn -1 0 0
vn 0 1 0
vn 0 -1 0
usemtl chemical_bench
f 12/28/7 15/27/7 13/26/7 10/25/7
f 11/32/8 12/31/8 10/30/8 9/29/8
f 16/36/9 11/35/9 9/34/9 14/33/9
f 15/40/10 16/39/10 14/38/10 13/37/10
f 14/44/11 9/43/11 10/42/11 13/41/11
f 15/48/12 12/47/12 11/46/12 16/45/12
o top
v 0.5 1 1.5
v 0.5 1 -0.4375
v 0.5 0.9375 1.5
v 0.5 0.9375 -0.4375
v -0.5 1 -0.4375
v -0.5 1 1.5
v -0.5 0.9375 -0.4375
v -0.5 0.9375 1.5
vt 0.609375 0.9765625
vt 0.671875 0.9765625
vt 0.671875 0.97265625
vt 0.609375 0.97265625
vt 0.60546875 0.84375
vt 0.7265625 0.84375
vt 0.7265625 0.83984375
vt 0.60546875 0.83984375
vt 0.609375 0.97265625
vt 0.671875 0.97265625
vt 0.671875 0.96875
vt 0.609375 0.96875
vt 0.60546875 0.83984375
vt 0.7265625 0.83984375
vt 0.7265625 0.8359375
vt 0.60546875 0.8359375
vt 0.54296875 0.421875
vt 0.48046875 0.421875
vt 0.48046875 0.54296875
vt 0.54296875 0.54296875
vt 0.0625 0.515625
vt 0 0.515625
vt 0 0.39453125
vt 0.0625 0.39453125
vn 0 0 -1
vn 1 0 0
vn 0 0 1
vn -1 0 0
vn 0 1 0
vn 0 -1 0
usemtl chemical_bench
f 20/52/13 23/51/13 21/50/13 18/49/13
f 19/56/14 20/55/14 18/54/14 17/53/14
f 24/60/15 19/59/15 17/58/15 22/57/15
f 23/64/16 24/63/16 22/62/16 21/61/16
f 22/68/17 17/67/17 18/66/17 21/65/17
f 23/72/18 20/71/18 19/70/18 24/69/18
o back
v 0.5 0.9375 1.5
v 0.5 0.9375 1.4375
v 0.5 0.0625 1.5
v 0.5 0.0625 1.4375
v -1.5 0.9375 1.4375
v -1.5 0.9375 1.5
v -1.5 0.0625 1.4375
v -1.5 0.0625 1.5
vt 0.0625 0.515625
vt 0.1875 0.515625
vt 0.1875 0.4609375
vt 0.0625 0.4609375
vt 0.36328125 0.62890625
vt 0.3671875 0.62890625
vt 0.3671875 0.57421875
vt 0.36328125 0.57421875
vt 0.1875 0.51171875
vt 0.3125 0.51171875
vt 0.3125 0.45703125
vt 0.1875 0.45703125
vt 0.34375 0.51171875
vt 0.34765625 0.51171875
vt 0.34765625 0.45703125
vt 0.34375 0.45703125
vt 0.6171875 0.87890625
vt 0.4921875 0.87890625
vt 0.4921875 0.8828125
vt 0.6171875 0.8828125
vt 0.73046875 0.87890625
vt 0.60546875 0.87890625
vt 0.60546875 0.875
vt 0.73046875 0.875
vn 0 0 -1
vn 1 0 0
vn 0 0 1
vn -1 0 0
vn 0 1 0
vn 0 -1 0
usemtl chemical_bench
f 28/76/19 31/75/19 29/74/19 26/73/19
f 27/80/20 28/79/20 26/78/20 25/77/20
f 32/84/21 27/83/21 25/82/21 30/81/21
f 31/88/22 32/87/22 30/86/22 29/85/22
f 30/92/23 25/91/23 26/90/23 29/89/23
f 31/96/24 28/95/24 27/94/24 32/93/24
o side
v 0.5 0.9375 1.4375
v 0.5 0.9375 -0.4375
v 0.5 0.0625 1.4375
v 0.5 0.0625 -0.4375
v 0.4375 0.9375 -0.4375
v 0.4375 0.9375 1.4375
v 0.4375 0.0625 -0.4375
v 0.4375 0.0625 1.4375
vt 0.34765625 0.51171875
vt 0.3515625 0.51171875
vt 0.3515625 0.45703125
vt 0.34765625 0.45703125
vt 0.4921875 1
vt 0.609375 1
vt 0.609375 0.9453125
vt 0.4921875 0.9453125
vt 0.3515625 0.51171875
vt 0.35546875 0.51171875
vt 0.35546875 0.45703125
vt 0.3515625 0.45703125
vt 0.4921875 0.9453125
vt 0.609375 0.9453125
vt 0.609375 0.890625
vt 0.4921875 0.890625
vt 0.0546875 0.27734375
vt 0.05078125 0.27734375
vt 0.05078125 0.39453125
vt 0.0546875 0.39453125
vt 0.05859375 0.39453125
vt 0.0546875 0.39453125
vt 0.0546875 0.27734375
vt 0.05859375 0.27734375
vn 0 0 -1
vn 1 0 0
vn 0 0 1
vn -1 0 0
vn 0 1 0
vn 0 -1 0
usemtl chemical_bench
f 36/100/25 39/99/25 37/98/25 34/97/25
f 35/104/26 36/103/26 34/102/26 33/101/26
f 40/108/27 35/107/27 33/106/27 38/105/27
f 39/112/28 40/111/28 38/110/28 37/109/28
f 38/116/29 33/115/29 34/114/29 37/113/29
f 39/120/30 36/119/30 35/118/30 40/117/30
o side
v -0.5 0.9375 0.5625
v -0.5 0.9375 0.5
v -0.5 0.0625 0.5625
v -0.5 0.0625 0.5
v -1.4375 0.9375 0.5
v -1.4375 0.9375 0.5625
v -1.4375 0.0625 0.5
v -1.4375 0.0625 0.5625
vt 0.296875 0.45703125
vt 0.35546875 0.45703125
vt 0.35546875 0.40234375
vt 0.296875 0.40234375
vt 0.578125 0.39453125
vt 0.58203125 0.39453125
vt 0.58203125 0.33984375
vt 0.578125 0.33984375
vt 0.54296875 0.44921875
vt 0.6015625 0.44921875
vt 0.6015625 0.39453125
vt 0.54296875 0.39453125
vt 0.58203125 0.39453125
vt 0.5859375 0.39453125
vt 0.5859375 0.33984375
vt 0.58203125 0.33984375
vt 0.66796875 0.94140625
vt 0.609375 0.94140625
vt 0.609375 0.9453125
vt 0.66796875 0.9453125
vt 0.66796875 0.94140625
vt 0.609375 0.94140625
vt 0.609375 0.9375
vt 0.66796875 0.9375
vn 0 0 -1
vn 1 0 0
vn 0 0 1
vn -1 0 0
vn 0 1 0
vn 0 -1 0
usemtl chemical_bench
f 44/124/31 47/123/31 45/122/31 42/121/31
f 43/128/32 44/127/32 42/126/32 41/125/32
f 48/132/33 43/131/33 41/130/33 46/129/33
f 47/136/34 48/135/34 46/134/34 45/133/34
f 46/140/35 41/139/35 42/138/35 45/137/35
f 47/144/36 44/143/36 43/142/36 48/141/36
o separator
v -0.4375 0.9375 1.4375
v -0.4375 0.9375 -0.4375
v -0.4375 0.0625 1.4375
v -0.4375 0.0625 -0.4375
v -0.5 0.9375 -0.4375
v -0.5 0.9375 1.4375
v -0.5 0.0625 -0.4375
v -0.5 0.0625 1.4375
vt 0.59375 0.39453125
vt 0.59765625 0.39453125
vt 0.59765625 0.33984375
vt 0.59375 0.33984375
vt 0.0625 0.4609375
vt 0.1796875 0.4609375
vt 0.1796875 0.40625
vt 0.0625 0.40625
vt 0.59765625 0.39453125
vt 0.6015625 0.39453125
vt 0.6015625 0.33984375
vt 0.59765625 0.33984375
vt 0.1796875 0.45703125
vt 0.296875 0.45703125
vt 0.296875 0.40234375
vt 0.1796875 0.40234375
vt 0.0625 0.27734375
vt 0.05859375 0.27734375
vt 0.05859375 0.39453125
vt 0.0625 0.39453125
vt 0.609375 0.69921875
vt 0.60546875 0.69921875
vt 0.60546875 0.58203125
vt 0.609375 0.58203125
vn 0 0 -1
vn 1 0 0
vn 0 0 1
vn -1 0 0
vn 0 1 0
vn 0 -1 0
usemtl chemical_bench
f 52/148/37 55/147/37 53/146/37 50/145/37
f 51/152/38 52/151/38 50/150/38 49/149/38
f 56/156/39 51/155/39 49/154/39 54/153/39
f 55/160/40 56/159/40 54/158/40 53/157/40
f 54/164/41 49/163/41 50/162/41 53/161/41
f 55/168/42 52/167/42 51/166/42 56/165/42
o door
v 0.4375 0.875 -0.375
v 0.4375 0.875 -0.4375
v 0.4375 0.0625 -0.375
v 0.4375 0.0625 -0.4375
v -0.4375 0.875 -0.4375
v -0.4375 0.875 -0.375
v -0.4375 0.0625 -0.4375
v -0.4375 0.0625 -0.375
vt 0.47265625 0.421875
vt 0.52734375 0.421875
vt 0.52734375 0.37109375
vt 0.47265625 0.37109375
vt 0.609375 0.69921875
vt 0.61328125 0.69921875
vt 0.61328125 0.6484375
vt 0.609375 0.6484375
vt 0.0625 0.40625
vt 0.1171875 0.40625
vt 0.1171875 0.35546875
vt 0.0625 0.35546875
vt 0.609375 0.6484375
vt 0.61328125 0.6484375
vt 0.61328125 0.59765625
vt 0.609375 0.59765625
vt 0.6640625 0.93359375
vt 0.609375 0.93359375
vt 0.609375 0.9375
vt 0.6640625 0.9375
vt 0.6640625 0.93359375
vt 0.609375 0.93359375
vt 0.609375 0.9296875
vt 0.6640625 0.9296875
vn 0 0 -1
vn 1 0 0
vn 0 0 1
vn -1 0 0
vn 0 1 0
vn 0 -1 0
usemtl chemical_bench
f 60/172/43 63/171/43 61/170/43 58/169/43
f 59/176/44 60/175/44 58/174/44 57/173/44
f 64/180/45 59/179/45 57/178/45 62/177/45
f 63/184/46 64/183/46 62/182/46 61/181/46
f 62/188/47 57/187/47 58/186/47 61/185/47
f 63/192/48 60/191/48 59/190/48 64/189/48
o fluid_base
v 0.4375 0.9375 -0.4625
v 0.4375 0.9375 -0.46875
v 0.4375 0.8125 -0.4625
v 0.4375 0.8125 -0.46875
v 0.3125 0.9375 -0.46875
v 0.3125 0.9375 -0.4625
v 0.3125 0.8125 -0.46875
v 0.3125 0.8125 -0.4625
vt 0.3359375 0.46484375
vt 0.34375 0.46484375
vt 0.34375 0.45703125
vt 0.3359375 0.45703125
vt 0.6171875 0.5625
vt 0.62109375 0.5625
vt 0.62109375 0.5546875
vt 0.6171875 0.5546875
vt 0.47265625 0.43359375
vt 0.48046875 0.43359375
vt 0.48046875 0.42578125
vt 0.47265625 0.42578125
vt 0.6171875 0.5546875
vt 0.62109375 0.5546875
vt 0.62109375 0.546875
vt 0.6171875 0.546875
vt 0.1875 0.45703125
vt 0.1796875 0.45703125
vt 0.1796875 0.4609375
vt 0.1875 0.4609375
vt 0.48046875 0.42578125
vt 0.47265625 0.42578125
vt 0.47265625 0.421875
vt 0.48046875 0.421875
vn 0 0 -1
vn 1 0 0
vn 0 0 1
vn -1 0 0
vn 0 1 0
vn 0 -1 0
usemtl chemical_bench
f 68/196/49 71/195/49 69/194/49 66/193/49
f 67/200/50 68/199/50 66/198/50 65/197/50
f 72/204/51 67/203/51 65/202/51 70/201/51
f 71/208/52 72/207/52 70/206/52 69/205/52
f 70/212/53 65/211/53 66/210/53 69/209/53
f 71/216/54 68/215/54 67/214/54 72/213/54
o gas_base
v 0.25 0.9375 -0.4625
v 0.25 0.9375 -0.46875
v 0.25 0.8125 -0.4625
v 0.25 0.8125 -0.46875
v 0.125 0.9375 -0.46875
v 0.125 0.9375 -0.4625
v 0.125 0.8125 -0.46875
v 0.125 0.8125 -0.4625
vt 0.609375 0.8984375
vt 0.6171875 0.8984375
vt 0.6171875 0.890625
vt 0.609375 0.890625
vt 0.6171875 0.546875
vt 0.62109375 0.546875
vt 0.62109375 0.5390625
vt 0.6171875 0.5390625
vt 0.61328125 0.38671875
vt 0.62109375 0.38671875
vt 0.62109375 0.37890625
vt 0.61328125 0.37890625
vt 0.6171875 0.5390625
vt 0.62109375 0.5390625
vt 0.62109375 0.53125
vt 0.6171875 0.53125
vt 0.625 0.52734375
vt 0.6171875 0.52734375
vt 0.6171875 0.53125
vt 0.625 0.53125
vt 0.625 0.52734375
vt 0.6171875 0.52734375
vt 0.6171875 0.5234375
vt 0.625 0.5234375
vn 0 0 -1
vn 1 0 0
vn 0 0 1
vn -1 0 0
vn 0 1 0
vn 0 -1 0
usemtl chemical_bench
f 76/220/55 79/219/55 77/218/55 74/217/55
f 75/224/56 76/223/56 74/222/56 73/221/56
f 80/228/57 75/227/57 73/226/57 78/225/57
f 79/232/58 80/231/58 78/230/58 77/229/58
f 78/236/59 73/235/59 74/234/59 77/233/59
f 79/240/60 76/239/60 75/238/60 80/237/60
o fluid_handle
v 0.375 0.875 -0.49375
v 0.375 0.875 -0.46875
v 0.3883975 0.825 -0.49375
v 0.3883975 0.825 -0.46875
v 0.4116025 0.8383975 -0.49375
v 0.4116025 0.8383975 -0.46875
v 0.425 0.8616025 -0.49375
v 0.425 0.8616025 -0.46875
v 0.425 0.8883975 -0.49375
v 0.425 0.8883975 -0.46875
v 0.4116025 0.9116025 -0.49375
v 0.4116025 0.9116025 -0.46875
v 0.3883975 0.925 -0.49375
v 0.3883975 0.925 -0.46875
v 0.3616025 0.925 -0.49375
v 0.3616025 0.925 -0.46875
v 0.3383975 0.9116025 -0.49375
v 0.3383975 0.9116025 -0.46875
v 0.325 0.8883975 -0.49375
v 0.325 0.8883975 -0.46875
v 0.325 0.8616025 -0.49375
v 0.325 0.8616025 -0.46875
v 0.3383975 0.8383975 -0.49375
v 0.3383975 0.8383975 -0.46875
v 0.3616025 0.825 -0.49375
v 0.3616025 0.825 -0.46875
vt 0.62338125 0.59525625
vt 0.62193125 0.59609375
vt 0.62109375 0.59296875
vt 0.19615 0.37734375
vt 0.197825 0.37734375
vt 0.197825 0.37890625
vt 0.19615 0.37890625
vt 0.62193125 0.58359375
vt 0.62338125 0.58443125
vt 0.62109375 0.58671875
vt 0.62421875 0.59380625
vt 0.62338125 0.59525625
vt 0.62109375 0.59296875
vt 0.1693625 0.37734375
vt 0.1710375 0.37734375
vt 0.1710375 0.37890625
vt 0.1693625 0.37890625
vt 0.62338125 0.58443125
vt 0.62421875 0.58588125
vt 0.62109375 0.58671875
vt 0.62421875 0.59213125
vt 0.62421875 0.59380625
vt 0.62109375 0.59296875
vt 0.1710375 0.37734375
vt 0.1727125 0.37734375
vt 0.1727125 0.37890625
vt 0.1710375 0.37890625
vt 0.62421875 0.58588125
vt 0.62421875 0.58755625
vt 0.62109375 0.58671875
vt 0.62338125 0.59068125
vt 0.62421875 0.59213125
vt 0.62109375 0.59296875
vt 0.1727125 0.37734375
vt 0.1743875 0.37734375
vt 0.1743875 0.37890625
vt 0.1727125 0.37890625
vt 0.62421875 0.58755625
vt 0.62338125 0.58900625
vt 0.62109375 0.58671875
vt 0.62193125 0.58984375
vt 0.62338125 0.59068125
vt 0.62109375 0.59296875
vt 0.177175 0.37734375
vt 0.17885 0.37734375
vt 0.17885 0.37890625
vt 0.177175 0.37890625
vt 0.62338125 0.58900625
vt 0.62193125 0.58984375
vt 0.62109375 0.58671875
vt 0.62025625 0.58984375
vt 0.62193125 0.58984375
vt 0.62109375 0.59296875
vt 0.17885 0.37734375
vt 0.180525 0.37734375
vt 0.180525 0.37890625
vt 0.17885 0.37890625
vt 0.62193125 0.58984375
vt 0.62025625 0.58984375
vt 0.62109375 0.58671875
vt 0.61880625 0.59068125
vt 0.62025625 0.58984375
vt 0.62109375 0.59296875
vt 0.180525 0.37734375
vt 0.1822 0.37734375
vt 0.1822 0.37890625
vt 0.180525 0.37890625
vt 0.62025625 0.58984375
vt 0.61880625 0.58900625
vt 0.62109375 0.58671875
vt 0.61796875 0.59213125
vt 0.61880625 0.59068125
vt 0.62109375 0.59296875
vt 0.1849875 0.37734375
vt 0.1866625 0.37734375
vt 0.1866625 0.37890625
vt 0.1849875 0.37890625
vt 0.61880625 0.58900625
vt 0.61796875 0.58755625
vt 0.62109375 0.58671875
vt 0.61796875 0.59380625
vt 0.61796875 0.59213125
vt 0.62109375 0.59296875
vt 0.1866625 0.37734375
vt 0.1883375 0.37734375
vt 0.1883375 0.37890625
vt 0.1866625 0.37890625
vt 0.61796875 0.58755625
vt 0.61796875 0.58588125
vt 0.62109375 0.58671875
vt 0.61880625 0.59525625
vt 0.61796875 0.59380625
vt 0.62109375 0.59296875
vt 0.1883375 0.37734375
vt 0.1900125 0.37734375
vt 0.1900125 0.37890625
vt 0.1883375 0.37890625
vt 0.61796875 0.58588125
vt 0.61880625 0.58443125
vt 0.62109375 0.58671875
vt 0.62025625 0.59609375
vt 0.61880625 0.59525625
vt 0.62109375 0.59296875
vt 0.1928 0.37734375
vt 0.194475 0.37734375
vt 0.194475 0.37890625
vt 0.1928 0.37890625
vt 0.61880625 0.58443125
vt 0.62025625 0.58359375
vt 0.62109375 0.58671875
vt 0.62193125 0.59609375
vt 0.62025625 0.59609375
vt 0.62109375 0.59296875
vt 0.194475 0.37734375
vt 0.19615 0.37734375
vt 0.19615 0.37890625
vt 0.194475 0.37890625
vt 0.62025625 0.58359375
vt 0.62193125 0.58359375
vt 0.62109375 0.58671875
vn 0 -2.220446049250313e-16 -1
vn 0.5000024352623957 -0.8660239977804737 1.9229595644276147e-16
vn 0 2.220446049250313e-16 1
vn 0 -2.220446049250313e-16 -1
vn 0.8660239977804737 -0.5000024352623957 1.110228431993922e-16
vn 0 2.220446049250313e-16 1
vn 0 -2.220446049250313e-16 -1
vn 1 0 0
vn 0 2.220446049250313e-16 1
vn 0 -2.220446049250313e-16 -1
vn 0.8660239977804737 0.5000024352623957 -1.110228431993922e-16
vn 0 2.220446049250313e-16 1
vn 0 -2.220446049250313e-16 -1
vn 0.5000024352623957 0.8660239977804737 -1.9229595644276147e-16
vn 0 2.220446049250313e-16 1
vn 0 -2.220446049250313e-16 -1
vn 0 1 -2.220446049250313e-16
vn 0 2.220446049250313e-16 1
vn 0 -2.220446049250313e-16 -1
vn -0.5000024352623957 0.8660239977804737 -1.9229595644276147e-16
vn 0 2.220446049250313e-16 1
vn 0 -2.220446049250313e-16 -1
vn -0.8660239977804737 0.5000024352623957 -1.110228431993922e-16
vn 0 2.220446049250313e-16 1
vn 0 -2.220446049250313e-16 -1
vn -1 0 0
vn 0 2.220446049250313e-16 1
vn 0 -2.220446049250313e-16 -1
vn -0.8660239977804737 -0.5000024352623957 1.110228431993922e-16
vn 0 2.220446049250313e-16 1
vn 0 -2.220446049250313e-16 -1
vn -0.5000024352623957 -0.8660239977804737 1.9229595644276147e-16
vn 0 2.220446049250313e-16 1
vn 0 -2.220446049250313e-16 -1
vn 0 -1 2.220446049250313e-16
vn 0 2.220446049250313e-16 1
usemtl chemical_bench
f 85/241/61 83/242/61 81/243/61
f 83/244/62 85/245/62 86/246/62 84/247/62
f 84/248/63 86/249/63 82/250/63
f 87/251/64 85/252/64 81/253/64
f 85/254/65 87/255/65 88/256/65 86/257/65
f 86/258/66 88/259/66 82/260/66
f 89/261/67 87/262/67 81/263/67
f 87/264/68 89/265/68 90/266/68 88/267/68
f 88/268/69 90/269/69 82/270/69
f 91/271/70 89/272/70 81/273/70
f 89/274/71 91/275/71 92/276/71 90/277/71
f 90/278/72 92/279/72 82/280/72
f 93/281/73 91/282/73 81/283/73
f 91/284/74 93/285/74 94/286/74 92/287/74
f 92/288/75 94/289/75 82/290/75
f 95/291/76 93/292/76 81/293/76
f 93/294/77 95/295/77 96/296/77 94/297/77
f 94/298/78 96/299/78 82/300/78
f 97/301/79 95/302/79 81/303/79
f 95/304/80 97/305/80 98/306/80 96/307/80
f 96/308/81 98/309/81 82/310/81
f 99/311/82 97/312/82 81/313/82
f 97/314/83 99/315/83 100/316/83 98/317/83
f 98/318/84 100/319/84 82/320/84
f 101/321/85 99/322/85 81/323/85
f 99/324/86 101/325/86 102/326/86 100/327/86
f 100/328/87 102/329/87 82/330/87
f 103/331/88 101/332/88 81/333/88
f 101/334/89 103/335/89 104/336/89 102/337/89
f 102/338/90 104/339/90 82/340/90
f 105/341/91 103/342/91 81/343/91
f 103/344/92 105/345/92 106/346/92 104/347/92
f 104/348/93 106/349/93 82/350/93
f 83/351/94 105/352/94 81/353/94
f 105/354/95 83/355/95 84/356/95 106/357/95
f 106/358/96 84/359/96 82/360/96
o gas_handle
v 0.1875 0.875 -0.49375
v 0.1875 0.875 -0.46875
v 0.2008975 0.825 -0.49375
v 0.2008975 0.825 -0.46875
v 0.2241025 0.8383975 -0.49375
v 0.2241025 0.8383975 -0.46875
v 0.2375 0.8616025 -0.49375
v 0.2375 0.8616025 -0.46875
v 0.2375 0.8883975 -0.49375
v 0.2375 0.8883975 -0.46875
v 0.2241025 0.9116025 -0.49375
v 0.2241025 0.9116025 -0.46875
v 0.2008975 0.925 -0.49375
v 0.2008975 0.925 -0.46875
v 0.1741025 0.925 -0.49375
v 0.1741025 0.925 -0.46875
v 0.1508975 0.9116025 -0.49375
v 0.1508975 0.9116025 -0.46875
v 0.1375 0.8883975 -0.49375
v 0.1375 0.8883975 -0.46875
v 0.1375 0.8616025 -0.49375
v 0.1375 0.8616025 -0.46875
v 0.1508975 0.8383975 -0.49375
v 0.1508975 0.8383975 -0.46875
v 0.1741025 0.825 -0.49375
v 0.1741025 0.825 -0.46875
vt 0.62338125 0.575725
vt 0.62193125 0.5765625
vt 0.62109375 0.5734375
vt 0.2274 0.37734375
vt 0.229075 0.37734375
vt 0.229075 0.37890625
vt 0.2274 0.37890625
vt 0.62193125 0.5640625
vt 0.62338125 0.5649
vt 0.62109375 0.5671875
vt 0.62421875 0.574275
vt 0.62338125 0.575725
vt 0.62109375 0.5734375
vt 0.2006125 0.37734375
vt 0.2022875 0.37734375
vt 0.2022875 0.37890625
vt 0.2006125 0.37890625
vt 0.62338125 0.5649
vt 0.62421875 0.56635
vt 0.62109375 0.5671875
vt 0.62421875 0.5726
vt 0.62421875 0.574275
vt 0.62109375 0.5734375
vt 0.2022875 0.37734375
vt 0.2039625 0.37734375
vt 0.2039625 0.37890625
vt 0.2022875 0.37890625
vt 0.62421875 0.56635
vt 0.62421875 0.568025
vt 0.62109375 0.5671875
vt 0.62338125 0.57115
vt 0.62421875 0.5726
vt 0.62109375 0.5734375
vt 0.2039625 0.37734375
vt 0.2056375 0.37734375
vt 0.2056375 0.37890625
vt 0.2039625 0.37890625
vt 0.62421875 0.568025
vt 0.62338125 0.569475
vt 0.62109375 0.5671875
vt 0.62193125 0.5703125
vt 0.62338125 0.57115
vt 0.62109375 0.5734375
vt 0.208425 0.37734375
vt 0.2101 0.37734375
vt 0.2101 0.37890625
vt 0.208425 0.37890625
vt 0.62338125 0.569475
vt 0.62193125 0.5703125
vt 0.62109375 0.5671875
vt 0.62025625 0.5703125
vt 0.62193125 0.5703125
vt 0.62109375 0.5734375
vt 0.2101 0.37734375
vt 0.211775 0.37734375
vt 0.211775 0.37890625
vt 0.2101 0.37890625
vt 0.62193125 0.5703125
vt 0.62025625 0.5703125
vt 0.62109375 0.5671875
vt 0.61880625 0.57115
vt 0.62025625 0.5703125
vt 0.62109375 0.5734375
vt 0.211775 0.37734375
vt 0.21345 0.37734375
vt 0.21345 0.37890625
vt 0.211775 0.37890625
vt 0.62025625 0.5703125
vt 0.61880625 0.569475
vt 0.62109375 0.5671875
vt 0.61796875 0.5726
vt 0.61880625 0.57115
vt 0.62109375 0.5734375
vt 0.2162375 0.37734375
vt 0.2179125 0.37734375
vt 0.2179125 0.37890625
vt 0.2162375 0.37890625
vt 0.61880625 0.569475
vt 0.61796875 0.568025
vt 0.62109375 0.5671875
vt 0.61796875 0.574275
vt 0.61796875 0.5726
vt 0.62109375 0.5734375
vt 0.2179125 0.37734375
vt 0.2195875 0.37734375
vt 0.2195875 0.37890625
vt 0.2179125 0.37890625
vt 0.61796875 0.568025
vt 0.61796875 0.56635
vt 0.62109375 0.5671875
vt 0.61880625 0.575725
vt 0.61796875 0.574275
vt 0.62109375 0.5734375
vt 0.2195875 0.37734375
vt 0.2212625 0.37734375
vt 0.2212625 0.37890625
vt 0.2195875 0.37890625
vt 0.61796875 0.56635
vt 0.61880625 0.5649
vt 0.62109375 0.5671875
vt 0.62025625 0.5765625
vt 0.61880625 0.575725
vt 0.62109375 0.5734375
vt 0.22405 0.37734375
vt 0.225725 0.37734375
vt 0.225725 0.37890625
vt 0.22405 0.37890625
vt 0.61880625 0.5649
vt 0.62025625 0.5640625
vt 0.62109375 0.5671875
vt 0.62193125 0.5765625
vt 0.62025625 0.5765625
vt 0.62109375 0.5734375
vt 0.225725 0.37734375
vt 0.2274 0.37734375
vt 0.2274 0.37890625
vt 0.225725 0.37890625
vt 0.62025625 0.5640625
vt 0.62193125 0.5640625
vt 0.62109375 0.5671875
vn 0 -2.220446049250313e-16 -1
vn 0.5000024352623957 -0.8660239977804737 1.9229595644276147e-16
vn 0 2.220446049250313e-16 1
vn 0 -2.220446049250313e-16 -1
vn 0.8660239977804737 -0.5000024352623957 1.110228431993922e-16
vn 0 2.220446049250313e-16 1
vn 0 -2.220446049250313e-16 -1
vn 1 0 0
vn 0 2.220446049250313e-16 1
vn 0 -2.220446049250313e-16 -1
vn 0.8660239977804737 0.5000024352623957 -1.110228431993922e-16
vn 0 2.220446049250313e-16 1
vn 0 -2.220446049250313e-16 -1
vn 0.5000024352623957 0.8660239977804737 -1.9229595644276147e-16
vn 0 2.220446049250313e-16 1
vn 0 -2.220446049250313e-16 -1
vn 0 1 -2.220446049250313e-16
vn 0 2.220446049250313e-16 1
vn 0 -2.220446049250313e-16 -1
vn -0.5000024352623957 0.8660239977804737 -1.9229595644276147e-16
vn 0 2.220446049250313e-16 1
vn 0 -2.220446049250313e-16 -1
vn -0.8660239977804737 0.5000024352623957 -1.110228431993922e-16
vn 0 2.220446049250313e-16 1
vn 0 -2.220446049250313e-16 -1
vn -1 0 0
vn 0 2.220446049250313e-16 1
vn 0 -2.220446049250313e-16 -1
vn -0.8660239977804737 -0.5000024352623957 1.110228431993922e-16
vn 0 2.220446049250313e-16 1
vn 0 -2.220446049250313e-16 -1
vn -0.5000024352623957 -0.8660239977804737 1.9229595644276147e-16
vn 0 2.220446049250313e-16 1
vn 0 -2.220446049250313e-16 -1
vn 0 -1 2.220446049250313e-16
vn 0 2.220446049250313e-16 1
usemtl chemical_bench
f 111/361/97 109/362/97 107/363/97
f 109/364/98 111/365/98 112/366/98 110/367/98
f 110/368/99 112/369/99 108/370/99
f 113/371/100 111/372/100 107/373/100
f 111/374/101 113/375/101 114/376/101 112/377/101
f 112/378/102 114/379/102 108/380/102
f 115/381/103 113/382/103 107/383/103
f 113/384/104 115/385/104 116/386/104 114/387/104
f 114/388/105 116/389/105 108/390/105
f 117/391/106 115/392/106 107/393/106
f 115/394/107 117/395/107 118/396/107 116/397/107
f 116/398/108 118/399/108 108/400/108
f 119/401/109 117/402/109 107/403/109
f 117/404/110 119/405/110 120/406/110 118/407/110
f 118/408/111 120/409/111 108/410/111
f 121/411/112 119/412/112 107/413/112
f 119/414/113 121/415/113 122/416/113 120/417/113
f 120/418/114 122/419/114 108/420/114
f 123/421/115 121/422/115 107/423/115
f 121/424/116 123/425/116 124/426/116 122/427/116
f 122/428/117 124/429/117 108/430/117
f 125/431/118 123/432/118 107/433/118
f 123/434/119 125/435/119 126/436/119 124/437/119
f 124/438/120 126/439/120 108/440/120
f 127/441/121 125/442/121 107/443/121
f 125/444/122 127/445/122 128/446/122 126/447/122
f 126/448/123 128/449/123 108/450/123
f 129/451/124 127/452/124 107/453/124
f 127/454/125 129/455/125 130/456/125 128/457/125
f 128/458/126 130/459/126 108/460/126
f 131/461/127 129/462/127 107/463/127
f 129/464/128 131/465/128 132/466/128 130/467/128
f 130/468/129 132/469/129 108/470/129
f 109/471/130 131/472/130 107/473/130
f 131/474/131 109/475/131 110/476/131 132/477/131
f 132/478/132 110/479/132 108/480/132
o side
v -1.4375 0.9375 1.4375
v -1.4375 0.9375 0.5
v -1.4375 0.0625 1.4375
v -1.4375 0.0625 0.5
v -1.5 0.9375 0.5
v -1.5 0.9375 1.4375
v -1.5 0.0625 0.5
v -1.5 0.0625 1.4375
vt 0.5859375 0.39453125
vt 0.58984375 0.39453125
vt 0.58984375 0.33984375
vt 0.5859375 0.33984375
vt 0.35546875 0.43359375
vt 0.4140625 0.43359375
vt 0.4140625 0.37890625
vt 0.35546875 0.37890625
vt 0.58984375 0.39453125
vt 0.59375 0.39453125
vt 0.59375 0.33984375
vt 0.58984375 0.33984375
vt 0.4140625 0.43359375
vt 0.47265625 0.43359375
vt 0.47265625 0.37890625
vt 0.4140625 0.37890625
vt 0.359375 0.5703125
vt 0.35546875 0.5703125
vt 0.35546875 0.62890625
vt 0.359375 0.62890625
vt 0.36328125 0.62890625
vt 0.359375 0.62890625
vt 0.359375 0.5703125
vt 0.36328125 0.5703125
vn 0 0 -1
vn 1 0 0
vn 0 0 1
vn -1 0 0
vn 0 1 0
vn 0 -1 0
usemtl chemical_bench
f 136/484/133 139/483/133 137/482/133 134/481/133
f 135/488/134 136/487/134 134/486/134 133/485/134
f 140/492/135 135/491/135 133/490/135 138/489/135
f 139/496/136 140/495/136 138/494/136 137/493/136
f 138/500/137 133/499/137 134/498/137 137/497/137
f 139/504/138 136/503/138 135/502/138 140/501/138
o base
v -0.5 0.0625 1.5
v -0.5 0.0625 0.5
v -0.5 0 1.5
v -0.5 0 0.5
v -1.5 0.0625 0.5
v -1.5 0.0625 1.5
v -1.5 0 0.5
v -1.5 0 1.5
vt 0.609375 0.9921875
vt 0.671875 0.9921875
vt 0.671875 0.98828125
vt 0.609375 0.98828125
vt 0.609375 0.98828125
vt 0.671875 0.98828125
vt 0.671875 0.984375
vt 0.609375 0.984375
vt 0.609375 0.984375
vt 0.671875 0.984375
vt 0.671875 0.98046875
vt 0.609375 0.98046875
vt 0.609375 0.98046875
vt 0.671875 0.98046875
vt 0.671875 0.9765625
vt 0.609375 0.9765625
vt 0.60546875 0.63671875
vt 0.54296875 0.63671875
vt 0.54296875 0.69921875
vt 0.60546875 0.69921875
vt 0.60546875 0.63671875
vt 0.54296875 0.63671875
vt 0.54296875 0.57421875
vt 0.60546875 0.57421875
vn 0 0 -1
vn 1 0 0
vn 0 0 1
vn -1 0 0
vn 0 1 0
vn 0 -1 0
usemtl chemical_bench
f 144/508/139 147/507/139 145/506/139 142/505/139
f 143/512/140 144/511/140 142/510/140 141/509/140
f 148/516/141 143/515/141 141/514/141 146/513/141
f 147/520/142 148/519/142 146/518/142 145/517/142
f 146/524/143 141/523/143 142/522/143 145/521/143
f 147/528/144 144/527/144 143/526/144 148/525/144
o top
v -0.5 1 1.5
v -0.5 1 0.5
v -0.5 0.9375 1.5
v -0.5 0.9375 0.5
v -1.5 1 0.5
v -1.5 1 1.5
v -1.5 0.9375 0.5
v -1.5 0.9375 1.5
vt 0.609375 0.96875
vt 0.671875 0.96875
vt 0.671875 0.96484375
vt 0.609375 0.96484375
vt 0.609375 0.96484375
vt 0.671875 0.96484375
vt 0.671875 0.9609375
vt 0.609375 0.9609375
vt 0.609375 0.9609375
vt 0.671875 0.9609375
vt 0.671875 0.95703125
vt 0.609375 0.95703125
vt 0.609375 0.95703125
vt 0.671875 0.95703125
vt 0.671875 0.953125
vt 0.609375 0.953125
vt 0.60546875 0.51171875
vt 0.54296875 0.51171875
vt 0.54296875 0.57421875
vt 0.60546875 0.57421875
vt 0.60546875 0.51171875
vt 0.54296875 0.51171875
vt 0.54296875 0.44921875
vt 0.60546875 0.44921875
vn 0 0 -1
vn 1 0 0
vn 0 0 1
vn -1 0 0
vn 0 1 0
vn 0 -1 0
usemtl chemical_bench
f 152/532/145 155/531/145 153/530/145 150/529/145
f 151/536/146 152/535/146 150/534/146 149/533/146
f 156/540/147 151/539/147 149/538/147 154/537/147
f 155/544/148 156/543/148 154/542/148 153/541/148
f 154/548/149 149/547/149 150/546/149 153/545/149
f 155/552/150 152/551/150 151/550/150 156/549/150
o side
v -1.5 3 1.5
v -1.5 3 -0.4375
v -1.5 0 1.5
v -1.5 0 -0.4375
v -1.50625 3 -0.4375
v -1.50625 3 1.5
v -1.50625 0 -0.4375
v -1.50625 0 1.5
vt 0.02734375 0.39453125
vt 0.03125 0.39453125
vt 0.03125 0.20703125
vt 0.02734375 0.20703125
vt 0 0.8125
vt 0.12109375 0.8125
vt 0.12109375 0.625
vt 0 0.625
vt 0.03125 0.39453125
vt 0.03515625 0.39453125
vt 0.03515625 0.20703125
vt 0.03125 0.20703125
vt 0.12109375 0.8125
vt 0.2421875 0.8125
vt 0.2421875 0.625
vt 0.12109375 0.625
vt 0.046875 0.2734375
vt 0.04296875 0.2734375
vt 0.04296875 0.39453125
vt 0.046875 0.39453125
vt 0.05078125 0.39453125
vt 0.046875 0.39453125
vt 0.046875 0.2734375
vt 0.05078125 0.2734375
vn 0 0 -1
vn 1 0 0
vn 0 0 1
vn -1 0 0
vn 0 1 0
vn 0 -1 0
usemtl chemical_bench
f 160/556/151 163/555/151 161/554/151 158/553/151
f 159/560/152 160/559/152 158/558/152 157/557/152
f 164/564/153 159/563/153 157/562/153 162/561/153
f 163/568/154 164/567/154 162/566/154 161/565/154
f 162/572/155 157/571/155 158/570/155 161/569/155
f 163/576/156 160/575/156 159/574/156 164/573/156
o side
v 0.5062500000000001 3 1.5
v 0.5062500000000001 3 -0.4375
v 0.5062500000000001 0 1.5
v 0.5062500000000001 0 -0.4375
v 0.5 3 -0.4375
v 0.5 3 1.5
v 0.5 0 -0.4375
v 0.5 0 1.5
vt 0.3515625 0.40234375
vt 0.35546875 0.40234375
vt 0.35546875 0.21484375
vt 0.3515625 0.21484375
vt 0 1
vt 0.12109375 1
vt 0.12109375 0.8125
vt 0 0.8125
vt 0.0234375 0.39453125
vt 0.02734375 0.39453125
vt 0.02734375 0.20703125
vt 0.0234375 0.20703125
vt 0.12109375 1
vt 0.2421875 1
vt 0.2421875 0.8125
vt 0.12109375 0.8125
vt 0.0390625 0.2734375
vt 0.03515625 0.2734375
vt 0.03515625 0.39453125
vt 0.0390625 0.39453125
vt 0.04296875 0.39453125
vt 0.0390625 0.39453125
vt 0.0390625 0.2734375
vt 0.04296875 0.2734375
vn 0 0 -1
vn 1 0 0
vn 0 0 1
vn -1 0 0
vn 0 1 0
vn 0 -1 0
usemtl chemical_bench
f 168/580/157 171/579/157 169/578/157 166/577/157
f 167/584/158 168/583/158 166/582/158 165/581/158
f 172/588/159 167/587/159 165/586/159 170/585/159
f 171/592/160 172/591/160 170/590/160 169/589/160
f 170/596/161 165/595/161 166/594/161 169/593/161
f 171/600/162 168/599/162 167/598/162 172/597/162
o glass
v 0.4375 2.25 -0.30000000000000004
v 0.4375 2.25 -0.36250000000000004
v 0.4375 1.875 -0.30000000000000004
v 0.4375 1.875 -0.36250000000000004
v -1.4375 2.25 -0.36250000000000004
v -1.4375 2.25 -0.30000000000000004
v -1.4375 1.875 -0.36250000000000004
v -1.4375 1.875 -0.30000000000000004
vt 0.1171875 0.40234375
vt 0.234375 0.40234375
vt 0.234375 0.37890625
vt 0.1171875 0.37890625
vt 0.609375 0.484375
vt 0.61328125 0.484375
vt 0.61328125 0.4609375
vt 0.609375 0.4609375
vt 0.234375 0.40234375
vt 0.3515625 0.40234375
vt 0.3515625 0.37890625
vt 0.234375 0.37890625
vt 0.61328125 0.66796875
vt 0.6171875 0.66796875
vt 0.6171875 0.64453125
vt 0.61328125 0.64453125
vt 0.72265625 0.83203125
vt 0.60546875 0.83203125
vt 0.60546875 0.8359375
vt 0.72265625 0.8359375
vt 0.72265625 0.83203125
vt 0.60546875 0.83203125
vt 0.60546875 0.828125
vt 0.72265625 0.828125
vn 0 0 -1
vn 1 0 0
vn 0 0 1
vn -1 0 0
vn 0 1 0
vn 0 -1 0
usemtl chemical_bench
f 176/604/163 179/603/163 177/602/163 174/601/163
f 175/608/164 176/607/164 174/606/164 173/605/164
f 180/612/165 175/611/165 173/610/165 178/609/165
f 179/616/166 180/615/166 178/614/166 177/613/166
f 178/620/167 173/619/167 174/618/167 177/617/167
f 179/624/168 176/623/168 175/622/168 180/621/168
o vent
v 0.4375 2.9375 -0.3125
v 0.4375 2.9375 -0.375
v 0.4375 2.25 -0.3125
v 0.4375 2.25 -0.375
v -1.4375 2.9375 -0.375
v -1.4375 2.9375 -0.3125
v -1.4375 2.25 -0.375
v -1.4375 2.25 -0.3125
vt 0.54296875 0.78515625
vt 0.66015625 0.78515625
vt 0.66015625 0.7421875
vt 0.54296875 0.7421875
vt 0.36328125 0.57421875
vt 0.3671875 0.57421875
vt 0.3671875 0.53125
vt 0.36328125 0.53125
vt 0.54296875 0.7421875
vt 0.66015625 0.7421875
vt 0.66015625 0.69921875
vt 0.54296875 0.69921875
vt 0.35546875 0.5703125
vt 0.359375 0.5703125
vt 0.359375 0.52734375
vt 0.35546875 0.52734375
vt 0.72265625 0.82421875
vt 0.60546875 0.82421875
vt 0.60546875 0.828125
vt 0.72265625 0.828125
vt 0.72265625 0.82421875
vt 0.60546875 0.82421875
vt 0.60546875 0.8203125
vt 0.72265625 0.8203125
vn 0 0 -1
vn 1 0 0
vn 0 0 1
vn -1 0 0
vn 0 1 0
vn 0 -1 0
usemtl chemical_bench
f 184/628/169 187/627/169 185/626/169 182/625/169
f 183/632/170 184/631/170 182/630/170 181/629/170
f 188/636/171 183/635/171 181/634/171 186/633/171
f 187/640/172 188/639/172 186/638/172 185/637/172
f 186/644/173 181/643/173 182/642/173 185/641/173
f 187/648/174 184/647/174 183/646/174 188/645/174
o top
v 0.5 3 1.5
v 0.5 3 -0.5
v 0.5 2.9375 1.5
v 0.5 2.9375 -0.5
v -1.5 3 -0.5
v -1.5 3 1.5
v -1.5 2.9375 -0.5
v -1.5 2.9375 1.5
vt 0.60546875 0.875
vt 0.73046875 0.875
vt 0.73046875 0.87109375
vt 0.60546875 0.87109375
vt 0.60546875 0.87109375
vt 0.73046875 0.87109375
vt 0.73046875 0.8671875
vt 0.60546875 0.8671875
vt 0.60546875 0.8671875
vt 0.73046875 0.8671875
vt 0.73046875 0.86328125
vt 0.60546875 0.86328125
vt 0.60546875 0.86328125
vt 0.73046875 0.86328125
vt 0.73046875 0.859375
vt 0.60546875 0.859375
vt 0.3671875 0.875
vt 0.2421875 0.875
vt 0.2421875 1
vt 0.3671875 1
vt 0.3671875 0.875
vt 0.2421875 0.875
vt 0.2421875 0.75
vt 0.3671875 0.75
vn 0 0 -1
vn 1 0 0
vn 0 0 1
vn -1 0 0
vn 0 1 0
vn 0 -1 0
usemtl chemical_bench
f 192/652/175 195/651/175 193/650/175 190/649/175
f 191/656/176 192/655/176 190/654/176 189/653/176
f 196/660/177 191/659/177 189/658/177 194/657/177
f 195/664/178 196/663/178 194/662/178 193/661/178
f 194/668/179 189/667/179 190/666/179 193/665/179
f 195/672/180 192/671/180 191/670/180 196/669/180
o top
v 0.4375 2.3125 1.4375
v 0.4375 2.3125 -0.3125
v 0.4375 2.25 1.4375
v 0.4375 2.25 -0.3125
v -1.4375 2.3125 -0.3125
v -1.4375 2.3125 1.4375
v -1.4375 2.25 -0.3125
v -1.4375 2.25 1.4375
vt 0.60546875 0.8203125
vt 0.72265625 0.8203125
vt 0.72265625 0.81640625
vt 0.60546875 0.81640625
vt 0.60546875 0.4609375
vt 0.71484375 0.4609375
vt 0.71484375 0.45703125
vt 0.60546875 0.45703125
vt 0.60546875 0.81640625
vt 0.72265625 0.81640625
vt 0.72265625 0.8125
vt 0.60546875 0.8125
vt 0.60546875 0.45703125
vt 0.71484375 0.45703125
vt 0.71484375 0.453125
vt 0.60546875 0.453125
vt 0.1171875 0.515625
vt 0 0.515625
vt 0 0.625
vt 0.1171875 0.625
vt 0.234375 0.625
vt 0.1171875 0.625
vt 0.1171875 0.515625
vt 0.234375 0.515625
vn 0 0 -1
vn 1 0 0
vn 0 0 1
vn -1 0 0
vn 0 1 0
vn 0 -1 0
usemtl chemical_bench
f 200/676/181 203/675/181 201/674/181 198/673/181
f 199/680/182 200/679/182 198/678/182 197/677/182
f 204/684/183 199/683/183 197/682/183 202/681/183
f 203/688/184 204/687/184 202/686/184 201/685/184
f 202/692/185 197/691/185 198/690/185 201/689/185
f 203/696/186 200/695/186 199/694/186 204/693/186
o base
v 0.5 1.0625 1
v 0.5 1.0625 -0.5
v 0.5 1 1
v 0.5 1 -0.5
v -1.5 1.0625 -0.5
v -1.5 1.0625 1
v -1.5 1 -0.5
v -1.5 1 1
vt 0.60546875 0.859375
vt 0.73046875 0.859375
vt 0.73046875 0.85546875
vt 0.60546875 0.85546875
vt 0.60546875 0.453125
vt 0.69921875 0.453125
vt 0.69921875 0.44921875
vt 0.60546875 0.44921875
vt 0.60546875 0.85546875
vt 0.73046875 0.85546875
vt 0.73046875 0.8515625
vt 0.60546875 0.8515625
vt 0.609375 1
vt 0.703125 1
vt 0.703125 0.99609375
vt 0.609375 0.99609375
vt 0.48046875 0.43359375
vt 0.35546875 0.43359375
vt 0.35546875 0.52734375
vt 0.48046875 0.52734375
vt 0.60546875 0.87890625
vt 0.48046875 0.87890625
vt 0.48046875 0.78515625
vt 0.60546875 0.78515625
vn 0 0 -1
vn 1 0 0
vn 0 0 1
vn -1 0 0
vn 0 1 0
vn 0 -1 0
usemtl chemical_bench
f 208/700/187 211/699/187 209/698/187 206/697/187
f 207/704/188 208/703/188 206/702/188 205/701/188
f 212/708/189 207/707/189 205/706/189 210/705/189
f 211/712/190 212/711/190 210/710/190 209/709/190
f 210/716/191 205/715/191 206/714/191 209/713/191
f 211/720/192 208/719/192 207/718/192 212/717/192
o back
v 0.5 2.9375 1.5
v 0.5 2.9375 1.375
v 0.5 1 1.5
v 0.5 1 1.375
v -1.5 2.9375 1.375
v -1.5 2.9375 1.5
v -1.5 1 1.375
v -1.5 1 1.5
vt 0.2421875 0.75
vt 0.3671875 0.75
vt 0.3671875 0.62890625
vt 0.2421875 0.62890625
vt 0.52734375 0.421875
vt 0.53515625 0.421875
vt 0.53515625 0.30078125
vt 0.52734375 0.30078125
vt 0.3671875 1
vt 0.4921875 1
vt 0.4921875 0.87890625
vt 0.3671875 0.87890625
vt 0.53515625 0.421875
vt 0.54296875 0.421875
vt 0.54296875 0.30078125
vt 0.53515625 0.30078125
vt 0.6171875 0.8828125
vt 0.4921875 0.8828125
vt 0.4921875 0.890625
vt 0.6171875 0.890625
vt 0.7265625 0.41796875
vt 0.6015625 0.41796875
vt 0.6015625 0.41015625
vt 0.7265625 0.41015625
vn 0 0 -1
vn 1 0 0
vn 0 0 1
vn -1 0 0
vn 0 1 0
vn 0 -1 0
usemtl chemical_bench
f 216/724/193 219/723/193 217/722/193 214/721/193
f 215/728/194 216/727/194 214/726/194 213/725/194
f 220/732/195 215/731/195 213/730/195 218/729/195
f 219/736/196 220/735/196 218/734/196 217/733/196
f 218/740/197 213/739/197 214/738/197 217/737/197
f 219/744/198 216/743/198 215/742/198 220/741/198
o faucet
v 0.5 1.0625 1.375
v 0.5 1.0625 1
v 0.5 1 1.375
v 0.5 1 1
v 0.25 1.0625 1
v 0.25 1.0625 1.375
v 0.25 1 1
v 0.25 1 1.375
vt 0.6171875 0.8828125
vt 0.6328125 0.8828125
vt 0.6328125 0.87890625
vt 0.6171875 0.87890625
vt 0.1875 0.515625
vt 0.2109375 0.515625
vt 0.2109375 0.51171875
vt 0.1875 0.51171875
vt 0.6171875 0.69140625
vt 0.6328125 0.69140625
vt 0.6328125 0.6875
vt 0.6171875 0.6875
vt 0.2109375 0.515625
vt 0.234375 0.515625
vt 0.234375 0.51171875
vt 0.2109375 0.51171875
vt 0.328125 0.48828125
vt 0.3125 0.48828125
vt 0.3125 0.51171875
vt 0.328125 0.51171875
vt 0.34375 0.51171875
vt 0.328125 0.51171875
vt 0.328125 0.48828125
vt 0.34375 0.48828125
vn 0 0 -1
vn 1 0 0
vn 0 0 1
vn -1 0 0
vn 0 1 0
vn 0 -1 0
usemtl chemical_bench
f 224/748/199 227/747/199 225/746/199 222/745/199
f 223/752/200 224/751/200 222/750/200 221/749/200
f 228/756/201 223/755/201 221/754/201 226/753/201
f 227/760/202 228/759/202 226/758/202 225/757/202
f 226/764/203 221/763/203 222/762/203 225/761/203
f 227/768/204 224/767/204 223/766/204 228/765/204
o faucet
v -1.25 1.0625 1.375
v -1.25 1.0625 1
v -1.25 1 1.375
v -1.25 1 1
v -1.5 1.0625 1
v -1.5 1.0625 1.375
v -1.5 1 1
v -1.5 1 1.375
vt 0.6171875 0.6875
vt 0.6328125 0.6875
vt 0.6328125 0.68359375
vt 0.6171875 0.68359375
vt 0.3125 0.46484375
vt 0.3359375 0.46484375
vt 0.3359375 0.4609375
vt 0.3125 0.4609375
vt 0.6171875 0.68359375
vt 0.6328125 0.68359375
vt 0.6328125 0.6796875
vt 0.6171875 0.6796875
vt 0.3125 0.4609375
vt 0.3359375 0.4609375
vt 0.3359375 0.45703125
vt 0.3125 0.45703125
vt 0.328125 0.46484375
vt 0.3125 0.46484375
vt 0.3125 0.48828125
vt 0.328125 0.48828125
vt 0.34375 0.48828125
vt 0.328125 0.48828125
vt 0.328125 0.46484375
vt 0.34375 0.46484375
vn 0 0 -1
vn 1 0 0
vn 0 0 1
vn -1 0 0
vn 0 1 0
vn 0 -1 0
usemtl chemical_bench
f 232/772/205 235/771/205 233/770/205 230/769/205
f 231/776/206 232/775/206 230/774/206 229/773/206
f 236/780/207 231/779/207 229/778/207 234/777/207
f 235/784/208 236/783/208 234/782/208 233/781/208
f 234/788/209 229/787/209 230/786/209 233/785/209
f 235/792/210 232/791/210 231/790/210 236/789/210
o side
v 0.5 2.9375 1.375
v 0.5 2.9375 -0.4375
v 0.5 1.0625 1.375
v 0.5 1.0625 -0.4375
v 0.4375 2.9375 -0.4375
v 0.4375 2.9375 1.375
v 0.4375 1.0625 -0.4375
v 0.4375 1.0625 1.375
vt 0.60546875 0.578125
vt 0.609375 0.578125
vt 0.609375 0.4609375
vt 0.60546875 0.4609375
vt 0.3671875 0.87890625
vt 0.48046875 0.87890625
vt 0.48046875 0.76171875
vt 0.3671875 0.76171875
vt 0.54296875 0.39453125
vt 0.546875 0.39453125
vt 0.546875 0.27734375
vt 0.54296875 0.27734375
vt 0.3671875 0.76171875
vt 0.48046875 0.76171875
vt 0.48046875 0.64453125
vt 0.3671875 0.64453125
vt 0.23828125 0.51171875
vt 0.234375 0.51171875
vt 0.234375 0.625
vt 0.23828125 0.625
vt 0.2421875 0.625
vt 0.23828125 0.625
vt 0.23828125 0.51171875
vt 0.2421875 0.51171875
vn 0 0 -1
vn 1 0 0
vn 0 0 1
vn -1 0 0
vn 0 1 0
vn 0 -1 0
usemtl chemical_bench
f 240/796/211 243/795/211 241/794/211 238/793/211
f 239/800/212 240/799/212 238/798/212 237/797/212
f 244/804/213 239/803/213 237/802/213 242/801/213
f 243/808/214 244/807/214 242/806/214 241/805/214
f 242/812/215 237/811/215 238/810/215 241/809/215
f 243/816/216 240/815/216 239/814/216 244/813/216
o side
v -1.4375 2.9375 1.375
v -1.4375 2.9375 -0.4375
v -1.4375 1.0625 1.375
v -1.4375 1.0625 -0.4375
v -1.5 2.9375 -0.4375
v -1.5 2.9375 1.375
v -1.5 1.0625 -0.4375
v -1.5 1.0625 1.375
vt 0.5625 0.39453125
vt 0.56640625 0.39453125
vt 0.56640625 0.27734375
vt 0.5625 0.27734375
vt 0.3671875 0.64453125
vt 0.48046875 0.64453125
vt 0.48046875 0.52734375
vt 0.3671875 0.52734375
vt 0.56640625 0.39453125
vt 0.5703125 0.39453125
vt 0.5703125 0.27734375
vt 0.56640625 0.27734375
vt 0.2421875 0.62890625
vt 0.35546875 0.62890625
vt 0.35546875 0.51171875
vt 0.2421875 0.51171875
vt 0.57421875 0.28125
vt 0.5703125 0.28125
vt 0.5703125 0.39453125
vt 0.57421875 0.39453125
vt 0.578125 0.39453125
vt 0.57421875 0.39453125
vt 0.57421875 0.28125
vt 0.578125 0.28125
vn 0 0 -1
vn 1 0 0
vn 0 0 1
vn -1 0 0
vn 0 1 0
vn 0 -1 0
usemtl chemical_bench
f 248/820/217 251/819/217 249/818/217 246/817/217
f 247/824/218 248/823/218 246/822/218 245/821/218
f 252/828/219 247/827/219 245/826/219 250/825/219
f 251/832/220 252/831/220 250/830/220 249/829/220
f 250/836/221 245/835/221 246/834/221 249/833/221
f 251/840/222 248/839/222 247/838/222 252/837/222
o frame
v 0.4345970869120796 2.9375 -0.4412912607362388
v 0.34620873926376117 2.9375 -0.3529029130879204
v 0.4345970869120796 1.0625 -0.4412912607362388
v 0.34620873926376117 1.0625 -0.3529029130879204
v 0.39040291308792036 2.9375 -0.3087087392637612
v 0.4787912607362388 2.9375 -0.3970970869120796
v 0.39040291308792036 1.0625 -0.3087087392637612
v 0.4787912607362388 1.0625 -0.3970970869120796
vt 0.546875 0.39453125
vt 0.55078125 0.39453125
vt 0.55078125 0.27734375
vt 0.546875 0.27734375
vt 0.6015625 0.41015625
vt 0.609375 0.41015625
vt 0.609375 0.29296875
vt 0.6015625 0.29296875
vt 0.55078125 0.39453125
vt 0.5546875 0.39453125
vt 0.5546875 0.27734375
vt 0.55078125 0.27734375
vt 0 0.39453125
vt 0.0078125 0.39453125
vt 0.0078125 0.27734375
vt 0 0.27734375
vt 0.62109375 0.4921875
vt 0.6171875 0.4921875
vt 0.6171875 0.5
vt 0.62109375 0.5
vt 0.62109375 0.4921875
vt 0.6171875 0.4921875
vt 0.6171875 0.484375
vt 0.62109375 0.484375
vn -0.7071067811865477 0 0.7071067811865475
vn -0.7071067811865475 0 -0.7071067811865477
vn 0.7071067811865477 0 -0.7071067811865475
vn 0.7071067811865475 0 0.7071067811865477
vn 0 1 0
vn 0 -1 0
usemtl chemical_bench
f 256/844/223 259/843/223 257/842/223 254/841/223
f 255/848/224 256/847/224 254/846/224 253/845/224
f 260/852/225 255/851/225 253/850/225 258/849/225
f 259/856/226 260/855/226 258/854/226 257/853/226
f 258/860/227 253/859/227 254/858/227 257/857/227
f 259/864/228 256/863/228 255/862/228 260/861/228
o frame
v -1.478791260736239 2.9375 -0.3970970869120796
v -1.3904029130879205 2.9375 -0.3087087392637612
v -1.478791260736239 1.0625 -0.3970970869120796
v -1.3904029130879205 1.0625 -0.3087087392637612
v -1.3462087392637612 2.9375 -0.3529029130879204
v -1.4345970869120797 2.9375 -0.4412912607362388
v -1.3462087392637612 1.0625 -0.3529029130879204
v -1.4345970869120797 1.0625 -0.4412912607362388
vt 0.5546875 0.39453125
vt 0.55859375 0.39453125
vt 0.55859375 0.27734375
vt 0.5546875 0.27734375
vt 0.0078125 0.39453125
vt 0.015625 0.39453125
vt 0.015625 0.27734375
vt 0.0078125 0.27734375
vt 0.55859375 0.39453125
vt 0.5625 0.39453125
vt 0.5625 0.27734375
vt 0.55859375 0.27734375
vt 0.015625 0.39453125
vt 0.0234375 0.39453125
vt 0.0234375 0.27734375
vt 0.015625 0.27734375
vt 0.62109375 0.4765625
vt 0.6171875 0.4765625
vt 0.6171875 0.484375
vt 0.62109375 0.484375
vt 0.62109375 0.4765625
vt 0.6171875 0.4765625
vt 0.6171875 0.46875
vt 0.62109375 0.46875
vn 0.7071067811865477 0 0.7071067811865475
vn -0.7071067811865475 0 0.7071067811865477
vn -0.7071067811865477 0 -0.7071067811865475
vn 0.7071067811865475 0 -0.7071067811865477
vn 0 1 0
vn 0 -1 0
usemtl chemical_bench
f 264/868/229 267/867/229 265/866/229 262/865/229
f 263/872/230 264/871/230 262/870/230 261/869/230
f 268/876/231 263/875/231 261/874/231 266/873/231
f 267/880/232 268/879/232 266/878/232 265/877/232
f 266/884/233 261/883/233 262/882/233 265/881/233
f 267/888/234 264/887/234 263/886/234 268/885/234
o faucet_fluid
v 0.0625 1.4375 1.375
v 0.0625 1.4375 1.125
v 0.0625 1.375 1.375
v 0.0625 1.375 1.125
v 0 1.4375 1.125
v 0 1.4375 1.375
v 0 1.375 1.125
v 0 1.375 1.375
vt 0.62109375 0.89453125
vt 0.625 0.89453125
vt 0.625 0.890625
vt 0.62109375 0.890625
vt 0.6171875 0.9296875
vt 0.6328125 0.9296875
vt 0.6328125 0.92578125
vt 0.6171875 0.92578125
vt 0.1171875 0.37890625
vt 0.12109375 0.37890625
vt 0.12109375 0.375
vt 0.1171875 0.375
vt 0.6171875 0.92578125
vt 0.6328125 0.92578125
vt 0.6328125 0.921875
vt 0.6171875 0.921875
vt 0.62109375 0.90625
vt 0.6171875 0.90625
vt 0.6171875 0.921875
vt 0.62109375 0.921875
vt 0.62109375 0.90625
vt 0.6171875 0.90625
vt 0.6171875 0.890625
vt 0.62109375 0.890625
vn 0 0 -1
vn 1 0 0
vn 0 0 1
vn -1 0 0
vn 0 1 0
vn 0 -1 0
usemtl chemical_bench
f 272/892/235 275/891/235 273/890/235 270/889/235
f 271/896/236 272/895/236 270/894/236 269/893/236
f 276/900/237 271/899/237 269/898/237 274/897/237
f 275/904/238 276/903/238 274/902/238 273/901/238
f 274/908/239 269/907/239 270/906/239 273/905/239
f 275/912/240 272/911/240 271/910/240 276/909/240
o faucet_fluid
v 0.0625 1.375 1.1875
v 0.0625 1.375 1.125
v 0.0625 1.3125 1.1875
v 0.0625 1.3125 1.125
v 0 1.375 1.125
v 0 1.375 1.1875
v 0 1.3125 1.125
v 0 1.3125 1.1875
vt 0.14453125 0.37890625
vt 0.1484375 0.37890625
vt 0.1484375 0.375
vt 0.14453125 0.375
vt 0.1484375 0.37890625
vt 0.15234375 0.37890625
vt 0.15234375 0.375
vt 0.1484375 0.375
vt 0.15234375 0.37890625
vt 0.15625 0.37890625
vt 0.15625 0.375
vt 0.15234375 0.375
vt 0.15625 0.37890625
vt 0.16015625 0.37890625
vt 0.16015625 0.375
vt 0.15625 0.375
vt 0.1640625 0.375
vt 0.16015625 0.375
vt 0.16015625 0.37890625
vt 0.1640625 0.37890625
vt 0.16796875 0.37890625
vt 0.1640625 0.37890625
vt 0.1640625 0.375
vt 0.16796875 0.375
vn 0 0 -1
vn 1 0 0
vn 0 0 1
vn -1 0 0
vn 0 1 0
vn 0 -1 0
usemtl chemical_bench
f 280/916/241 283/915/241 281/914/241 278/913/241
f 279/920/242 280/919/242 278/918/242 277/917/242
f 284/924/243 279/923/243 277/922/243 282/921/243
f 283/928/244 284/927/244 282/926/244 281/925/244
f 282/932/245 277/931/245 278/930/245 281/929/245
f 283/936/246 280/935/246 279/934/246 284/933/246
o gas_output
v -1 1.3125 1.375
v -1 1.3125 1.3125
v -1 1.1875 1.375
v -1 1.1875 1.3125
v -1.125 1.3125 1.3125
v -1.125 1.3125 1.375
v -1.125 1.1875 1.3125
v -1.125 1.1875 1.375
vt 0.6171875 0.890625
vt 0.625 0.890625
vt 0.625 0.8828125
vt 0.6171875 0.8828125
vt 0.6171875 0.5234375
vt 0.62109375 0.5234375
vt 0.62109375 0.515625
vt 0.6171875 0.515625
vt 0.6171875 0.69921875
vt 0.625 0.69921875
vt 0.625 0.69140625
vt 0.6171875 0.69140625
vt 0.6171875 0.515625
vt 0.62109375 0.515625
vt 0.62109375 0.5078125
vt 0.6171875 0.5078125
vt 0.625 0.50390625
vt 0.6171875 0.50390625
vt 0.6171875 0.5078125
vt 0.625 0.5078125
vt 0.625 0.50390625
vt 0.6171875 0.50390625
vt 0.6171875 0.5
vt 0.625 0.5
vn 0 0 -1
vn 1 0 0
vn 0 0 1
vn -1 0 0
vn 0 1 0
vn 0 -1 0
usemtl chemical_bench
f 288/940/247 291/939/247 289/938/247 286/937/247
f 287/944/248 288/943/248 286/942/248 285/941/248
f 292/948/249 287/947/249 285/946/249 290/945/249
f 291/952/250 292/951/250 290/950/250 289/949/250
f 290/956/251 285/955/251 286/954/251 289/953/251
f 291/960/252 288/959/252 287/958/252 292/957/252
o gas_output
v -1.04375 1.26875 1.3125
v -1.04375 1.26875 1.25
v -1.04375 1.23125 1.3125
v -1.04375 1.23125 1.25
v -1.08125 1.26875 1.25
v -1.08125 1.26875 1.3125
v -1.08125 1.23125 1.25
v -1.08125 1.23125 1.3125
vt 0.12109375 0.37890625
vt 0.125 0.37890625
vt 0.125 0.375
vt 0.12109375 0.375
vt 0.125 0.37890625
vt 0.12890625 0.37890625
vt 0.12890625 0.375
vt 0.125 0.375
vt 0.12890625 0.37890625
vt 0.1328125 0.37890625
vt 0.1328125 0.375
vt 0.12890625 0.375
vt 0.1328125 0.37890625
vt 0.13671875 0.37890625
vt 0.13671875 0.375
vt 0.1328125 0.375
vt 0.140625 0.375
vt 0.13671875 0.375
vt 0.13671875 0.37890625
vt 0.140625 0.37890625
vt 0.14453125 0.37890625
vt 0.140625 0.37890625
vt 0.140625 0.375
vt 0.14453125 0.375
vn 0 0 -1
vn 1 0 0
vn 0 0 1
vn -1 0 0
vn 0 1 0
vn 0 -1 0
usemtl chemical_bench
f 296/964/253 299/963/253 297/962/253 294/961/253
f 295/968/254 296/967/254 294/966/254 293/965/254
f 300/972/255 295/971/255 293/970/255 298/969/255
f 299/976/256 300/975/256 298/974/256 297/973/256
f 298/980/257 293/979/257 294/978/257 297/977/257
f 299/984/258 296/983/258 295/982/258 300/981/258
o stand
v 0.4375 1.625 0.9375
v 0.4375 1.625 0.875
v 0.4375 1.5625 0.9375
v 0.4375 1.5625 0.875
v -1.4375 1.625 0.875
v -1.4375 1.625 0.9375
v -1.4375 1.5625 0.875
v -1.4375 1.5625 0.9375
vt 0.60546875 0.8125
vt 0.72265625 0.8125
vt 0.72265625 0.80859375
vt 0.60546875 0.80859375
vt 0.36328125 0.53125
vt 0.3671875 0.53125
vt 0.3671875 0.52734375
vt 0.36328125 0.52734375
vt 0.60546875 0.80859375
vt 0.72265625 0.80859375
vt 0.72265625 0.8046875
vt 0.60546875 0.8046875
vt 0.6171875 0.46875
vt 0.62109375 0.46875
vt 0.62109375 0.46484375
vt 0.6171875 0.46484375
vt 0.72265625 0.80078125
vt 0.60546875 0.80078125
vt 0.60546875 0.8046875
vt 0.72265625 0.8046875
vt 0.72265625 0.80078125
vt 0.60546875 0.80078125
vt 0.60546875 0.796875
vt 0.72265625 0.796875
vn 0 0 -1
vn 1 0 0
vn 0 0 1
vn -1 0 0
vn 0 1 0
vn 0 -1 0
usemtl chemical_bench
f 304/988/259 307/987/259 305/986/259 302/985/259
f 303/992/260 304/991/260 302/990/260 301/989/260
f 308/996/261 303/995/261 301/994/261 306/993/261
f 307/1000/262 308/999/262 306/998/262 305/997/262
f 306/1004/263 301/1003/263 302/1002/263 305/1001/263
f 307/1008/264 304/1007/264 303/1006/264 308/1005/264
o stand
v 0.4375 1.875 0.9375
v 0.4375 1.875 0.875
v 0.4375 1.8125 0.9375
v 0.4375 1.8125 0.875
v -1.4375 1.875 0.875
v -1.4375 1.875 0.9375
v -1.4375 1.8125 0.875
v -1.4375 1.8125 0.9375
vt 0.60546875 0.796875
vt 0.72265625 0.796875
vt 0.72265625 0.79296875
vt 0.60546875 0.79296875
vt 0.6171875 0.46484375
vt 0.62109375 0.46484375
vt 0.62109375 0.4609375
vt 0.6171875 0.4609375
vt 0.60546875 0.79296875
vt 0.72265625 0.79296875
vt 0.72265625 0.7890625
vt 0.60546875 0.7890625
vt 0.6171875 0.41015625
vt 0.62109375 0.41015625
vt 0.62109375 0.40625
vt 0.6171875 0.40625
vt 0.72265625 0.78515625
vt 0.60546875 0.78515625
vt 0.60546875 0.7890625
vt 0.72265625 0.7890625
vt 0.72265625 0.58203125
vt 0.60546875 0.58203125
vt 0.60546875 0.578125
vt 0.72265625 0.578125
vn 0 0 -1
vn 1 0 0
vn 0 0 1
vn -1 0 0
vn 0 1 0
vn 0 -1 0
usemtl chemical_bench
f 312/1012/265 315/1011/265 313/1010/265 310/1009/265
f 311/1016/266 312/1015/266 310/1014/266 309/1013/266
f 316/1020/267 311/1019/267 309/1018/267 314/1017/267
f 315/1024/268 316/1023/268 314/1022/268 313/1021/268
f 314/1028/269 309/1027/269 310/1026/269 313/1025/269
f 315/1032/270 312/1031/270 311/1030/270 316/1029/270
o stand
v -0.0625 1.8125 0.9375
v -0.0625 1.8125 0.875
v -0.0625 1.625 0.9375
v -0.0625 1.625 0.875
v -0.125 1.8125 0.875
v -0.125 1.8125 0.9375
v -0.125 1.625 0.875
v -0.125 1.625 0.9375
vt 0.359375 0.5390625
vt 0.36328125 0.5390625
vt 0.36328125 0.52734375
vt 0.359375 0.52734375
vt 0.6171875 0.6796875
vt 0.62109375 0.6796875
vt 0.62109375 0.66796875
vt 0.6171875 0.66796875
vt 0.6171875 0.66796875
vt 0.62109375 0.66796875
vt 0.62109375 0.65625
vt 0.6171875 0.65625
vt 0.6171875 0.65625
vt 0.62109375 0.65625
vt 0.62109375 0.64453125
vt 0.6171875 0.64453125
vt 0.62109375 0.40234375
vt 0.6171875 0.40234375
vt 0.6171875 0.40625
vt 0.62109375 0.40625
vt 0.62109375 0.40234375
vt 0.6171875 0.40234375
vt 0.6171875 0.3984375
vt 0.62109375 0.3984375
vn 0 0 -1
vn 1 0 0
vn 0 0 1
vn -1 0 0
vn 0 1 0
vn 0 -1 0
usemtl chemical_bench
f 320/1036/271 323/1035/271 321/1034/271 318/1033/271
f 319/1040/272 320/1039/272 318/1038/272 317/1037/272
f 324/1044/273 319/1043/273 317/1042/273 322/1041/273
f 323/1048/274 324/1047/274 322/1046/274 321/1045/274
f 322/1052/275 317/1051/275 318/1050/275 321/1049/275
f 323/1056/276 320/1055/276 319/1054/276 324/1053/276
o stand
v -0.0625 1.5625 0.9375
v -0.0625 1.5625 0.875
v -0.0625 1.0625 0.9375
v -0.0625 1.0625 0.875
v -0.125 1.5625 0.875
v -0.125 1.5625 0.9375
v -0.125 1.0625 0.875
v -0.125 1.0625 0.9375
vt 0.359375 0.5703125
vt 0.36328125 0.5703125
vt 0.36328125 0.5390625
vt 0.359375 0.5390625
vt 0.609375 0.9296875
vt 0.61328125 0.9296875
vt 0.61328125 0.8984375
vt 0.609375 0.8984375
vt 0.609375 0.578125
vt 0.61328125 0.578125
vt 0.61328125 0.546875
vt 0.609375 0.546875
vt 0.609375 0.546875
vt 0.61328125 0.546875
vt 0.61328125 0.515625
vt 0.609375 0.515625
vt 0.62109375 0.38671875
vt 0.6171875 0.38671875
vt 0.6171875 0.390625
vt 0.62109375 0.390625
vt 0.625 0.921875
vt 0.62109375 0.921875
vt 0.62109375 0.91796875
vt 0.625 0.91796875
vn 0 0 -1
vn 1 0 0
vn 0 0 1
vn -1 0 0
vn 0 1 0
vn 0 -1 0
usemtl chemical_bench
f 328/1060/277 331/1059/277 329/1058/277 326/1057/277
f 327/1064/278 328/1063/278 326/1062/278 325/1061/278
f 332/1068/279 327/1067/279 325/1066/279 330/1065/279
f 331/1072/280 332/1071/280 330/1070/280 329/1069/280
f 330/1076/281 325/1075/281 326/1074/281 329/1073/281
f 331/1080/282 328/1079/282 327/1078/282 332/1077/282
o stand
v -0.0625 2.25 0.9375
v -0.0625 2.25 0.875
v -0.0625 1.875 0.9375
v -0.0625 1.875 0.875
v -0.125 2.25 0.875
v -0.125 2.25 0.9375
v -0.125 1.875 0.875
v -0.125 1.875 0.9375
vt 0.61328125 0.64453125
vt 0.6171875 0.64453125
vt 0.6171875 0.62109375
vt 0.61328125 0.62109375
vt 0.61328125 0.62109375
vt 0.6171875 0.62109375
vt 0.6171875 0.59765625
vt 0.61328125 0.59765625
vt 0.61328125 0.578125
vt 0.6171875 0.578125
vt 0.6171875 0.5546875
vt 0.61328125 0.5546875
vt 0.61328125 0.5546875
vt 0.6171875 0.5546875
vt 0.6171875 0.53125
vt 0.61328125 0.53125
vt 0.62109375 0.39453125
vt 0.6171875 0.39453125
vt 0.6171875 0.3984375
vt 0.62109375 0.3984375
vt 0.62109375 0.39453125
vt 0.6171875 0.39453125
vt 0.6171875 0.390625
vt 0.62109375 0.390625
vn 0 0 -1
vn 1 0 0
vn 0 0 1
vn -1 0 0
vn 0 1 0
vn 0 -1 0
usemtl chemical_bench
f 336/1084/283 339/1083/283 337/1082/283 334/1081/283
f 335/1088/284 336/1087/284 334/1086/284 333/1085/284
f 340/1092/285 335/1091/285 333/1090/285 338/1089/285
f 339/1096/286 340/1095/286 338/1094/286 337/1093/286
f 338/1100/287 333/1099/287 334/1098/287 337/1097/287
f 339/1104/288 336/1103/288 335/1102/288 340/1101/288
o stand
v -0.875 1.8125 0.9375
v -0.875 1.8125 0.875
v -0.875 1.625 0.9375
v -0.875 1.625 0.875
v -0.9375 1.8125 0.875
v -0.9375 1.8125 0.9375
v -0.9375 1.625 0.875
v -0.9375 1.625 0.9375
vt 0.6171875 0.64453125
vt 0.62109375 0.64453125
vt 0.62109375 0.6328125
vt 0.6171875 0.6328125
vt 0.6171875 0.6328125
vt 0.62109375 0.6328125
vt 0.62109375 0.62109375
vt 0.6171875 0.62109375
vt 0.6171875 0.62109375
vt 0.62109375 0.62109375
vt 0.62109375 0.609375
vt 0.6171875 0.609375
vt 0.6171875 0.609375
vt 0.62109375 0.609375
vt 0.62109375 0.59765625
vt 0.6171875 0.59765625
vt 0.625 0.8984375
vt 0.62109375 0.8984375
vt 0.62109375 0.90234375
vt 0.625 0.90234375
vt 0.625 0.8984375
vt 0.62109375 0.8984375
vt 0.62109375 0.89453125
vt 0.625 0.89453125
vn 0 0 -1
vn 1 0 0
vn 0 0 1
vn -1 0 0
vn 0 1 0
vn 0 -1 0
usemtl chemical_bench
f 344/1108/289 347/1107/289 345/1106/289 342/1105/289
f 343/1112/290 344/1111/290 342/1110/290 341/1109/290
f 348/1116/291 343/1115/291 341/1114/291 346/1113/291
f 347/1120/292 348/1119/292 346/1118/292 345/1117/292
f 346/1124/293 341/1123/293 342/1122/293 345/1121/293
f 347/1128/294 344/1127/294 343/1126/294 348/1125/294
o stand
v -0.875 1.5625 0.9375
v -0.875 1.5625 0.875
v -0.875 1.0625 0.9375
v -0.875 1.0625 0.875
v -0.9375 1.5625 0.875
v -0.9375 1.5625 0.9375
v -0.9375 1.0625 0.875
v -0.9375 1.0625 0.9375
vt 0.609375 0.515625
vt 0.61328125 0.515625
vt 0.61328125 0.484375
vt 0.609375 0.484375
vt 0.609375 0.41015625
vt 0.61328125 0.41015625
vt 0.61328125 0.37890625
vt 0.609375 0.37890625
vt 0.61328125 0.9296875
vt 0.6171875 0.9296875
vt 0.6171875 0.8984375
vt 0.61328125 0.8984375
vt 0.61328125 0.69921875
vt 0.6171875 0.69921875
vt 0.6171875 0.66796875
vt 0.61328125 0.66796875
vt 0.625 0.90625
vt 0.62109375 0.90625
vt 0.62109375 0.91015625
vt 0.625 0.91015625
vt 0.625 0.90625
vt 0.62109375 0.90625
vt 0.62109375 0.90234375
vt 0.625 0.90234375
vn 0 0 -1
vn 1 0 0
vn 0 0 1
vn -1 0 0
vn 0 1 0
vn 0 -1 0
usemtl chemical_bench
f 352/1132/295 355/1131/295 353/1130/295 350/1129/295
f 351/1136/296 352/1135/296 350/1134/296 349/1133/296
f 356/1140/297 351/1139/297 349/1138/297 354/1137/297
f 355/1144/298 356/1143/298 354/1142/298 353/1141/298
f 354/1148/299 349/1147/299 350/1146/299 353/1145/299
f 355/1152/300 352/1151/300 351/1150/300 356/1149/300
o stand
v -0.875 2.25 0.9375
v -0.875 2.25 0.875
v -0.875 1.875 0.9375
v -0.875 1.875 0.875
v -0.9375 2.25 0.875
v -0.9375 2.25 0.9375
v -0.9375 1.875 0.875
v -0.9375 1.875 0.9375
vt 0.61328125 0.53125
vt 0.6171875 0.53125
vt 0.6171875 0.5078125
vt 0.61328125 0.5078125
vt 0.61328125 0.5078125
vt 0.6171875 0.5078125
vt 0.6171875 0.484375
vt 0.61328125 0.484375
vt 0.61328125 0.484375
vt 0.6171875 0.484375
vt 0.6171875 0.4609375
vt 0.61328125 0.4609375
vt 0.61328125 0.41015625
vt 0.6171875 0.41015625
vt 0.6171875 0.38671875
vt 0.61328125 0.38671875
vt 0.625 0.9140625
vt 0.62109375 0.9140625
vt 0.62109375 0.91796875
vt 0.625 0.91796875
vt 0.625 0.9140625
vt 0.62109375 0.9140625
vt 0.62109375 0.91015625
vt 0.625 0.91015625
vn 0 0 -1
vn 1 0 0
vn 0 0 1
vn -1 0 0
vn 0 1 0
vn 0 -1 0
usemtl chemical_bench
f 360/1156/301 363/1155/301 361/1154/301 358/1153/301
f 359/1160/302 360/1159/302 358/1158/302 357/1157/302
f 364/1164/303 359/1163/303 357/1162/303 362/1161/303
f 363/1168/304 364/1167/304 362/1166/304 361/1165/304
f 362/1172/305 357/1171/305 358/1170/305 361/1169/305
f 363/1176/306 360/1175/306 359/1174/306 364/1173/306