# Made in Blockbench 5.0.7
mtllib redox_furnace.mtl

o cube
v -0.5 2 0.5
v -0.5 2 -0.5
v -0.5 1.9375 0.5
v -0.5 1.9375 -0.5
v -1.5 2 -0.5
v -1.5 2 0.5
v -1.5 1.9375 -0.5
v -1.5 1.9375 0.5
vt 0.71875 0.3046875
vt 0.84375 0.3046875
vt 0.84375 0.296875
vt 0.71875 0.296875
vt 0.734375 0.4375
vt 0.859375 0.4375
vt 0.859375 0.4296875
vt 0.734375 0.4296875
vt 0.7890625 0.609375
vt 0.9140625 0.609375
vt 0.9140625 0.6015625
vt 0.7890625 0.6015625
vt 0.7890625 0.6015625
vt 0.9140625 0.6015625
vt 0.9140625 0.59375
vt 0.7890625 0.59375
vt 0.375 0.75
vt 0.25 0.75
vt 0.25 0.875
vt 0.375 0.875
vt 0.375 0.75
vt 0.25 0.75
vt 0.25 0.625
vt 0.375 0.625
vn 0 0 -1
vn 1 0 0
vn 0 0 1
vn -1 0 0
vn 0 1 0
vn 0 -1 0
usemtl redox_furnace
f 4/4/1 7/3/1 5/2/1 2/1/1
f 3/8/2 4/7/2 2/6/2 1/5/2
f 8/12/3 3/11/3 1/10/3 6/9/3
f 7/16/4 8/15/4 6/14/4 5/13/4
f 6/20/5 1/19/5 2/18/5 5/17/5
f 7/24/6 4/23/6 3/22/6 8/21/6
o cube
v -0.53125 1.9375 0.46875
v -0.53125 1.9375 -0.46875
v -0.53125 1.875 0.46875
v -0.53125 1.875 -0.46875
v -1.46875 1.9375 -0.46875
v -1.46875 1.9375 0.46875
v -1.46875 1.875 -0.46875
v -1.46875 1.875 0.46875
vt 0.6171875 0.546875
vt 0.734375 0.546875
vt 0.734375 0.5390625
vt 0.6171875 0.5390625
vt 0.796875 0.890625
vt 0.9140625 0.890625
vt 0.9140625 0.8828125
vt 0.796875 0.8828125
vt 0.796875 0.8828125
vt 0.9140625 0.8828125
vt 0.9140625 0.875
vt 0.796875 0.875
vt 0.796875 0.875
vt 0.9140625 0.875
vt 0.9140625 0.8671875
vt 0.796875 0.8671875
vt 0.3671875 0.3828125
vt 0.25 0.3828125
vt 0.25 0.5
vt 0.3671875 0.5
vt 0.6171875 0.75
vt 0.5 0.75
vt 0.5 0.6328125
vt 0.6171875 0.6328125
vn 0 0 -1
vn 1 0 0
vn 0 0 1
vn -1 0 0
vn 0 1 0
vn 0 -1 0
usemtl redox_furnace
f 12/28/7 15/27/7 13/26/7 10/25/7
f 11/32/8 12/31/8 10/30/8 9/29/8
f 16/36/9 11/35/9 9/34/9 14/33/9
f 15/40/10 16/39/10 14/38/10 13/37/10
f 14/44/11 9/43/11 10/42/11 13/41/11
f 15/48/12 12/47/12 11/46/12 16/45/12
o cube
v -0.5 1.875 0.5
v -0.5 1.875 -0.49375
v -0.5 1 0.5
v -0.5 1 -0.49375
v -1.5 1.875 -0.49375
v -1.5 1.875 0.5
v -1.5 1 -0.49375
v -1.5 1 0.5
vt 0.59375 0.40625
vt 0.71875 0.40625
vt 0.71875 0.296875
vt 0.59375 0.296875
vt 0.4609375 0.390625
vt 0.5859375 0.390625
vt 0.5859375 0.28125
vt 0.4609375 0.28125
vt 0.609375 0.5390625
vt 0.734375 0.5390625
vt 0.734375 0.4296875
vt 0.609375 0.4296875
vt 0.21875 0.3828125
vt 0.34375 0.3828125
vt 0.34375 0.2734375
vt 0.21875 0.2734375
vt 0.125 0.5
vt 0 0.5
vt 0 0.625
vt 0.125 0.625
vt 0.25 0.625
vt 0.125 0.625
vt 0.125 0.5
vt 0.25 0.5
vn 0 0 -1
vn 1 0 0
vn 0 0 1
vn -1 0 0
vn 0 1 0
vn 0 -1 0
usemtl redox_furnace
f 20/52/13 23/51/13 21/50/13 18/49/13
f 19/56/14 20/55/14 18/54/14 17/53/14
f 24/60/15 19/59/15 17/58/15 22/57/15
f 23/64/16 24/63/16 22/62/16 21/61/16
f 22/68/17 17/67/17 18/66/17 21/65/17
f 23/72/18 20/71/18 19/70/18 24/69/18
o cube
v -0.625 1.75 -0.49375
v -0.625 1.75 -0.4999999999999998
v -0.625 1.25 -0.49375
v -0.625 1.25 -0.4999999999999998
v -1.375 1.75 -0.4999999999999998
v -1.375 1.75 -0.49375
v -1.375 1.25 -0.4999999999999998
v -1.375 1.25 -0.49375
vt 0.5859375 0.203125
vt 0.8671875 0.203125
vt 0.8671875 0.015625
vt 0.5859375 0.015625
vt 0.125 0.40625
vt 0.1328125 0.40625
vt 0.1328125 0.34375
vt 0.125 0.34375
vt 0.71875 0.4296875
vt 0.8125 0.4296875
vt 0.8125 0.3671875
vt 0.71875 0.3671875
vt 0.5859375 0.3984375
vt 0.59375 0.3984375
vt 0.59375 0.3359375
vt 0.5859375 0.3359375
vt 0.703125 0.421875
vt 0.609375 0.421875
vt 0.609375 0.4296875
vt 0.703125 0.4296875
vt 0.890625 0.8671875
vt 0.796875 0.8671875
vt 0.796875 0.859375
vt 0.890625 0.859375
vn 0 0 -1
vn 1 0 0
vn 0 0 1
vn -1 0 0
vn 0 1 0
vn 0 -1 0
usemtl redox_furnace
f 28/76/19 31/75/19 29/74/19 26/73/19
f 27/80/20 28/79/20 26/78/20 25/77/20
f 32/84/21 27/83/21 25/82/21 30/81/21
f 31/88/22 32/87/22 30/86/22 29/85/22
f 30/92/23 25/91/23 26/90/23 29/89/23
f 31/96/24 28/95/24 27/94/24 32/93/24
o cube
v 0.5 0.125 0.5
v 0.5 0.125 -0.5
v 0.5 0 0.5
v 0.5 0 -0.5
v -0.5 0.125 -0.5
v -0.5 0.125 0.5
v -0.5 0 -0.5
v -0.5 0 0.5
vt 0.71875 0.3203125
vt 0.84375 0.3203125
vt 0.84375 0.3046875
vt 0.71875 0.3046875
vt 0.7421875 0.59375
vt 0.8671875 0.59375
vt 0.8671875 0.578125
vt 0.7421875 0.578125
vt 0.7421875 0.578125
vt 0.8671875 0.578125
vt 0.8671875 0.5625
vt 0.7421875 0.5625
vt 0.75 0.859375
vt 0.875 0.859375
vt 0.875 0.84375
vt 0.75 0.84375
vt 0.5 0.75
vt 0.375 0.75
vt 0.375 0.875
vt 0.5 0.875
vt 0.375 0.625
vt 0.25 0.625
vt 0.25 0.5
vt 0.375 0.5
vn 0 0 -1
vn 1 0 0
vn 0 0 1
vn -1 0 0
vn 0 1 0
vn 0 -1 0
usemtl redox_furnace
f 36/100/25 39/99/25 37/98/25 34/97/25
f 35/104/26 36/103/26 34/102/26 33/101/26
f 40/108/27 35/107/27 33/106/27 38/105/27
f 39/112/28 40/111/28 38/110/28 37/109/28
f 38/116/29 33/115/29 34/114/29 37/113/29
f 39/120/30 36/119/30 35/118/30 40/117/30
o cube
v 0.5 1 0.5
v 0.5 1 -0.5
v 0.5 0.875 0.5
v 0.5 0.875 -0.5
v -0.5 1 -0.5
v -0.5 1 0.5
v -0.5 0.875 -0.5
v -0.5 0.875 0.5
vt 0.75 0.84375
vt 0.875 0.84375
vt 0.875 0.828125
vt 0.75 0.828125
vt 0.765625 0.953125
vt 0.890625 0.953125
vt 0.890625 0.9375
vt 0.765625 0.9375
vt 0.765625 0.9375
vt 0.890625 0.9375
vt 0.890625 0.921875
vt 0.765625 0.921875
vt 0.765625 0.921875
vt 0.890625 0.921875
vt 0.890625 0.90625
vt 0.765625 0.90625
vt 0.5 0.625
vt 0.375 0.625
vt 0.375 0.75
vt 0.5 0.75
vt 0.5 0.625
vt 0.375 0.625
vt 0.375 0.5
vt 0.5 0.5
vn 0 0 -1
vn 1 0 0
vn 0 0 1
vn -1 0 0
vn 0 1 0
vn 0 -1 0
usemtl redox_furnace
f 44/124/31 47/123/31 45/122/31 42/121/31
f 43/128/32 44/127/32 42/126/32 41/125/32
f 48/132/33 43/131/33 41/130/33 46/129/33
f 47/136/34 48/135/34 46/134/34 45/133/34
f 46/140/35 41/139/35 42/138/35 45/137/35
f 47/144/36 44/143/36 43/142/36 48/141/36
o cube
v -0.375 0.875 0.5
v -0.375 0.875 -0.5
v -0.375 0.125 0.5
v -0.375 0.125 -0.5
v -0.5 0.875 -0.5
v -0.5 0.875 0.5
v -0.5 0.125 -0.5
v -0.5 0.125 0.5
vt 0.4453125 0.3828125
vt 0.4609375 0.3828125
vt 0.4609375 0.2890625
vt 0.4453125 0.2890625
vt 0.6171875 0.65625
vt 0.7421875 0.65625
vt 0.7421875 0.5625
vt 0.6171875 0.5625
vt 0.203125 0.375
vt 0.21875 0.375
vt 0.21875 0.28125
vt 0.203125 0.28125
vt 0.625 0.875
vt 0.75 0.875
vt 0.75 0.78125
vt 0.625 0.78125
vt 0.15625 0.140625
vt 0.140625 0.140625
vt 0.140625 0.265625
vt 0.15625 0.265625
vt 0.3984375 0.2578125
vt 0.3828125 0.2578125
vt 0.3828125 0.1328125
vt 0.3984375 0.1328125
vn 0 0 -1
vn 1 0 0
vn 0 0 1
vn -1 0 0
vn 0 1 0
vn 0 -1 0
usemtl redox_furnace
f 52/148/37 55/147/37 53/146/37 50/145/37
f 51/152/38 52/151/38 50/150/38 49/149/38
f 56/156/39 51/155/39 49/154/39 54/153/39
f 55/160/40 56/159/40 54/158/40 53/157/40
f 54/164/41 49/163/41 50/162/41 53/161/41
f 55/168/42 52/167/42 51/166/42 56/165/42
o cube
v 0.5 1 1.5
v 0.5 1 0.5
v 0.5 0 1.5
v 0.5 0 0.5
v -1.5 1 0.5
v -1.5 1 1.5
v -1.5 0 0.5
v -1.5 0 1.5
vt 0 1
vt 0.25 1
vt 0.25 0.875
vt 0 0.875
vt 0 0.5
vt 0.125 0.5
vt 0.125 0.375
vt 0 0.375
vt 0 0.875
vt 0.25 0.875
vt 0.25 0.75
vt 0 0.75
vt 0.5 1
vt 0.625 1
vt 0.625 0.875
vt 0.5 0.875
vt 0.25 0.625
vt 0 0.625
vt 0 0.75
vt 0.25 0.75
vt 0.5 1
vt 0.25 1
vt 0.25 0.875
vt 0.5 0.875
vn 0 0 -1
vn 1 0 0
vn 0 0 1
vn -1 0 0
vn 0 1 0
vn 0 -1 0
usemtl redox_furnace
f 60/172/43 63/171/43 61/170/43 58/169/43
f 59/176/44 60/175/44 58/174/44 57/173/44
f 64/180/45 59/179/45 57/178/45 62/177/45
f 63/184/46 64/183/46 62/182/46 61/181/46
f 62/188/47 57/187/47 58/186/47 61/185/47
f 63/192/48 60/191/48 59/190/48 64/189/48
o cube
v 0.5 0.875 0.5
v 0.5 0.875 -0.5
v 0.5 0.125 0.5
v 0.5 0.125 -0.5
v 0.375 0.875 -0.5
v 0.375 0.875 0.5
v 0.375 0.125 -0.5
v 0.375 0.125 0.5
vt 0.5234375 0.21875
vt 0.5390625 0.21875
vt 0.5390625 0.125
vt 0.5234375 0.125
vt 0.5859375 0.296875
vt 0.7109375 0.296875
vt 0.7109375 0.203125
vt 0.5859375 0.203125
vt 0.5390625 0.21875
vt 0.5546875 0.21875
vt 0.5546875 0.125
vt 0.5390625 0.125
vt 0.7109375 0.296875
vt 0.8359375 0.296875
vt 0.8359375 0.203125
vt 0.7109375 0.203125
vt 0.796875 0.4375
vt 0.78125 0.4375
vt 0.78125 0.5625
vt 0.796875 0.5625
vt 0.5234375 0.21875
vt 0.5078125 0.21875
vt 0.5078125 0.09375
vt 0.5234375 0.09375
vn 0 0 -1
vn 1 0 0
vn 0 0 1
vn -1 0 0
vn 0 1 0
vn 0 -1 0
usemtl redox_furnace
f 68/196/49 71/195/49 69/194/49 66/193/49
f 67/200/50 68/199/50 66/198/50 65/197/50
f 72/204/51 67/203/51 65/202/51 70/201/51
f 71/208/52 72/207/52 70/206/52 69/205/52
f 70/212/53 65/211/53 66/210/53 69/209/53
f 71/216/54 68/215/54 67/214/54 72/213/54
o cylinder
v -3.717264591378872e-18 1 1
v -3.717264591378872e-18 2 1
v 0.12560118395208872 1 1.46875
v 0.12560118395208872 2 1.46875
v 0.3431488160479112 1 1.3431488160479113
v 0.3431488160479112 2 1.3431488160479113
v 0.46875 1 1.1256011839520887
v 0.46875 2 1.1256011839520887
v 0.46875 1 0.8743988160479113
v 0.46875 2 0.8743988160479113
v 0.3431488160479112 1 0.6568511839520887
v 0.3431488160479112 2 0.6568511839520887
v 0.12560118395208889 1 0.5312500000000002
v 0.12560118395208889 2 0.5312500000000002
v -0.12560118395208855 1 0.53125
v -0.12560118395208855 2 0.53125
v -0.3431488160479112 1 0.6568511839520887
v -0.3431488160479112 2 0.6568511839520887
v -0.4687499999999999 1 0.8743988160479113
v -0.4687499999999999 2 0.8743988160479113
v -0.46875 1 1.1256011839520885
v -0.46875 2 1.1256011839520885
v -0.3431488160479113 1 1.3431488160479113
v -0.3431488160479113 2 1.3431488160479113
v -0.12560118395208872 1 1.46875
v -0.12560118395208872 2 1.46875
vt 0.468675 0.48429999999999995
vt 0.44148125 0.5
vt 0.42578125 0.44140625
vt 0.41023125 0.2578125
vt 0.44163125000000003 0.2578125
vt 0.44163125000000003 0.3828125
vt 0.41023125 0.3828125
vt 0.57429375 0.515625
vt 0.6014875 0.531325
vt 0.55859375 0.57421875
vt 0.484375 0.45710625000000005
vt 0.468675 0.48429999999999995
vt 0.42578125 0.44140625
vt 0.62086875 0.65625
vt 0.65226875 0.65625
vt 0.65226875 0.78125
vt 0.62086875 0.78125
vt 0.6014875 0.531325
vt 0.6171875 0.55851875
vt 0.55859375 0.57421875
vt 0.484375 0.42570624999999995
vt 0.484375 0.45710625000000005
vt 0.42578125 0.44140625
vt 0.65226875 0.65625
vt 0.68366875 0.65625
vt 0.68366875 0.78125
vt 0.65226875 0.78125
vt 0.6171875 0.55851875
vt 0.6171875 0.58991875
vt 0.55859375 0.57421875
vt 0.468675 0.39851250000000005
vt 0.484375 0.42570624999999995
vt 0.42578125 0.44140625
vt 0.68366875 0.65625
vt 0.71506875 0.65625
vt 0.71506875 0.78125
vt 0.68366875 0.78125
vt 0.6171875 0.58991875
vt 0.6014875 0.6171125
vt 0.55859375 0.57421875
vt 0.44148125 0.3828125
vt 0.468675 0.39851250000000005
vt 0.42578125 0.44140625
vt 0.62868125 0.875
vt 0.66008125 0.875
vt 0.66008125 1
vt 0.62868125 1
vt 0.6014875 0.6171125
vt 0.57429375 0.6328125
vt 0.55859375 0.57421875
vt 0.41008125 0.3828125
vt 0.44148125 0.3828125
vt 0.42578125 0.44140625
vt 0.66008125 0.875
vt 0.69148125 0.875
vt 0.69148125 1
vt 0.66008125 1
vt 0.57429375 0.6328125
vt 0.54289375 0.6328125
vt 0.55859375 0.57421875
vt 0.3828875 0.39851250000000005
vt 0.41008125 0.3828125
vt 0.42578125 0.44140625
vt 0.69148125 0.875
vt 0.72288125 0.875
vt 0.72288125 1
vt 0.69148125 1
vt 0.54289375 0.6328125
vt 0.5157 0.6171125
vt 0.55859375 0.57421875
vt 0.3671875 0.42570624999999995
vt 0.3828875 0.39851250000000005
vt 0.42578125 0.44140625
vt 0.003681250000000004 0.25
vt 0.03508125 0.25
vt 0.03508125 0.375
vt 0.003681250000000004 0.375
vt 0.5157 0.6171125
vt 0.5 0.58991875
vt 0.55859375 0.57421875
vt 0.3671875 0.45710625000000005
vt 0.3671875 0.42570624999999995
vt 0.42578125 0.44140625
vt 0.03508125 0.25
vt 0.06648124999999999 0.25
vt 0.06648124999999999 0.375
vt 0.03508125 0.375
vt 0.5 0.58991875
vt 0.5 0.55851875
vt 0.55859375 0.57421875
vt 0.3828875 0.48429999999999995
vt 0.3671875 0.45710625000000005
vt 0.42578125 0.44140625
vt 0.06648124999999999 0.25
vt 0.09788125 0.25
vt 0.09788125 0.375
vt 0.06648124999999999 0.375
vt 0.5 0.55851875
vt 0.5157 0.531325
vt 0.55859375 0.57421875
vt 0.41008125 0.5
vt 0.3828875 0.48429999999999995
vt 0.42578125 0.44140625
vt 0.34743125 0.2578125
vt 0.37883125 0.2578125
vt 0.37883125 0.3828125
vt 0.34743125 0.3828125
vt 0.5157 0.531325
vt 0.54289375 0.515625
vt 0.55859375 0.57421875
vt 0.44148125 0.5
vt 0.41008125 0.5
vt 0.42578125 0.44140625
vt 0.37883125 0.2578125
vt 0.41023125 0.2578125
vt 0.41023125 0.3828125
vt 0.37883125 0.3828125
vt 0.54289375 0.515625
vt 0.57429375 0.515625
vt 0.55859375 0.57421875
vn 0 -1 0
vn 0.4999999999999999 0 0.8660254037844387
vn 0 1 0
vn 0 -1 0
vn 0.8660254037844387 0 0.5000000000000001
vn 0 1 0
vn 0 -1 0
vn 1 0 0
vn 0 1 0
vn 0 -1 0
vn 0.8660254037844387 0 -0.5000000000000002
vn 0 1 0
vn 0 -1 0
vn 0.4999999999999999 0 -0.8660254037844388
vn 0 1 0
vn 0 -1 0
vn 4.419635984676137e-16 0 -1
vn 0 1 0
vn 0 -1 0
vn -0.49999999999999933 0 -0.8660254037844392
vn 0 1 0
vn 0 -1 0
vn -0.866025403784439 0 -0.49999999999999956
vn 0 1 0
vn 0 -1 0
vn -1 0 -4.419635984676142e-16
vn 0 1 0
vn 0 -1 0
vn -0.866025403784439 0 0.49999999999999933
vn 0 1 0
vn 0 -1 0
vn -0.4999999999999998 0 0.8660254037844389
vn 0 1 0
vn 0 -1 0
vn 0 0 1
vn 0 1 0
usemtl redox_furnace
f 77/217/55 75/218/55 73/219/55
f 75/220/56 77/221/56 78/222/56 76/223/56
f 76/224/57 78/225/57 74/226/57
f 79/227/58 77/228/58 73/229/58
f 77/230/59 79/231/59 80/232/59 78/233/59
f 78/234/60 80/235/60 74/236/60
f 81/237/61 79/238/61 73/239/61
f 79/240/62 81/241/62 82/242/62 80/243/62
f 80/244/63 82/245/63 74/246/63
f 83/247/64 81/248/64 73/249/64
f 81/250/65 83/251/65 84/252/65 82/253/65
f 82/254/66 84/255/66 74/256/66
f 85/257/67 83/258/67 73/259/67
f 83/260/68 85/261/68 86/262/68 84/263/68
f 84/264/69 86/265/69 74/266/69
f 87/267/70 85/268/70 73/269/70
f 85/270/71 87/271/71 88/272/71 86/273/71
f 86/274/72 88/275/72 74/276/72
f 89/277/73 87/278/73 73/279/73
f 87/280/74 89/281/74 90/282/74 88/283/74
f 88/284/75 90/285/75 74/286/75
f 91/287/76 89/288/76 73/289/76
f 89/290/77 91/291/77 92/292/77 90/293/77
f 90/294/78 92/295/78 74/296/78
f 93/297/79 91/298/79 73/299/79
f 91/300/80 93/301/80 94/302/80 92/303/80
f 92/304/81 94/305/81 74/306/81
f 95/307/82 93/308/82 73/309/82
f 93/310/83 95/311/83 96/312/83 94/313/83
f 94/314/84 96/315/84 74/316/84
f 97/317/85 95/318/85 73/319/85
f 95/320/86 97/321/86 98/322/86 96/323/86
f 96/324/87 98/325/87 74/326/87
f 75/327/88 97/328/88 73/329/88
f 97/330/89 75/331/89 76/332/89 98/333/89
f 98/334/90 76/335/90 74/336/90
o cylinder
v -3.96508223080413e-18 2 1
v -3.96508223080413e-18 2.125 1
v 0.1339745962155613 2 1.5
v 0.1339745962155613 2.125 1.5
v 0.3660254037844386 2 1.3660254037844386
v 0.3660254037844386 2.125 1.3660254037844386
v 0.5 2 1.1339745962155612
v 0.5 2.125 1.1339745962155612
v 0.5 2 0.8660254037844386
v 0.5 2.125 0.8660254037844386
v 0.3660254037844386 2 0.6339745962155614
v 0.3660254037844386 2.125 0.6339745962155614
v 0.1339745962155615 2 0.5000000000000002
v 0.1339745962155615 2.125 0.5000000000000002
v -0.13397459621556113 2 0.5
v -0.13397459621556113 2.125 0.5
v -0.3660254037844386 2 0.6339745962155613
v -0.3660254037844386 2.125 0.6339745962155613
v -0.4999999999999999 2 0.8660254037844387
v -0.4999999999999999 2.125 0.8660254037844387
v -0.5 2 1.1339745962155612
v -0.5 2.125 1.1339745962155612
v -0.3660254037844387 2 1.3660254037844386
v -0.3660254037844387 2.125 1.3660254037844386
v -0.1339745962155613 2 1.5
v -0.1339745962155613 2.125 1.5
vt 0.5926281250000001 0.49887812499999995
vt 0.5636218749999999 0.515625
vt 0.546875 0.453125
vt 0.6847156249999999 0.546875
vt 0.718209375 0.546875
vt 0.718209375 0.5625
vt 0.6847156249999999 0.5625
vt 0.204246875 0.375
vt 0.233253125 0.39174687499999994
vt 0.1875 0.4375
vt 0.609375 0.46987187500000005
vt 0.5926281250000001 0.49887812499999995
vt 0.546875 0.453125
vt 0.602103125 0.40625
vt 0.635596875 0.40625
vt 0.635596875 0.421875
vt 0.602103125 0.421875
vt 0.233253125 0.39174687499999994
vt 0.25 0.42075312500000006
vt 0.1875 0.4375
vt 0.609375 0.43637812500000006
vt 0.609375 0.46987187500000005
vt 0.546875 0.453125
vt 0.635596875 0.40625
vt 0.6690906249999999 0.40625
vt 0.6690906249999999 0.421875
vt 0.635596875 0.421875
vt 0.25 0.42075312500000006
vt 0.25 0.45424687500000005
vt 0.1875 0.4375
vt 0.5926281250000001 0.40737187499999994
vt 0.609375 0.43637812500000006
vt 0.546875 0.453125
vt 0.6690906249999999 0.40625
vt 0.702584375 0.40625
vt 0.702584375 0.421875
vt 0.6690906249999999 0.421875
vt 0.25 0.45424687500000005
vt 0.233253125 0.48325312499999995
vt 0.1875 0.4375
vt 0.5636218749999999 0.390625
vt 0.5926281250000001 0.40737187499999994
vt 0.546875 0.453125
vt 0.781790625 0.796875
vt 0.815284375 0.796875
vt 0.815284375 0.8125
vt 0.781790625 0.8125
vt 0.233253125 0.48325312499999995
vt 0.204246875 0.5
vt 0.1875 0.4375
vt 0.530128125 0.390625
vt 0.5636218749999999 0.390625
vt 0.546875 0.453125
vt 0.815284375 0.796875
vt 0.8487781249999999 0.796875
vt 0.8487781249999999 0.8125
vt 0.815284375 0.8125
vt 0.204246875 0.5
vt 0.170753125 0.5
vt 0.1875 0.4375
vt 0.501121875 0.40737187499999994
vt 0.530128125 0.390625
vt 0.546875 0.453125
vt 0.8487781249999999 0.796875
vt 0.882271875 0.796875
vt 0.882271875 0.8125
vt 0.8487781249999999 0.8125
vt 0.170753125 0.5
vt 0.141746875 0.48325312499999995
vt 0.1875 0.4375
vt 0.484375 0.43637812500000006
vt 0.501121875 0.40737187499999994
vt 0.546875 0.453125
vt 0.773978125 0.8125
vt 0.807471875 0.8125
vt 0.807471875 0.828125
vt 0.773978125 0.828125
vt 0.141746875 0.48325312499999995
vt 0.125 0.45424687500000005
vt 0.1875 0.4375
vt 0.484375 0.46987187500000005
vt 0.484375 0.43637812500000006
vt 0.546875 0.453125
vt 0.807471875 0.8125
vt 0.8409656249999999 0.8125
vt 0.8409656249999999 0.828125
vt 0.807471875 0.828125
vt 0.125 0.45424687500000005
vt 0.125 0.42075312500000006
vt 0.1875 0.4375
vt 0.501121875 0.49887812499999995
vt 0.484375 0.46987187500000005
vt 0.546875 0.453125
vt 0.8409656249999999 0.8125
vt 0.874459375 0.8125
vt 0.874459375 0.828125
vt 0.8409656249999999 0.828125
vt 0.125 0.42075312500000006
vt 0.141746875 0.39174687499999994
vt 0.1875 0.4375
vt 0.530128125 0.515625
vt 0.501121875 0.49887812499999995
vt 0.546875 0.453125
vt 0.617728125 0.546875
vt 0.651221875 0.546875
vt 0.651221875 0.5625
vt 0.617728125 0.5625
vt 0.141746875 0.39174687499999994
vt 0.170753125 0.375
vt 0.1875 0.4375
vt 0.5636218749999999 0.515625
vt 0.530128125 0.515625
vt 0.546875 0.453125
vt 0.651221875 0.546875
vt 0.6847156249999999 0.546875
vt 0.6847156249999999 0.5625
vt 0.651221875 0.5625
vt 0.170753125 0.375
vt 0.204246875 0.375
vt 0.1875 0.4375
vn 0 -1 0
vn 0.5 0 0.8660254037844387
vn 0 1 0
vn 0 -1 0
vn 0.8660254037844386 0 0.5000000000000001
vn 0 1 0
vn 0 -1 0
vn 1 0 0
vn 0 1 0
vn 0 -1 0
vn 0.8660254037844387 0 -0.5000000000000003
vn 0 1 0
vn 0 -1 0
vn 0.5 0 -0.8660254037844387
vn 0 1 0
vn 0 -1 0
vn 4.143408735633879e-16 0 -1
vn 0 1 0
vn 0 -1 0
vn -0.4999999999999995 0 -0.8660254037844392
vn 0 1 0
vn 0 -1 0
vn -0.8660254037844389 0 -0.4999999999999996
vn 0 1 0
vn 0 -1 0
vn -1 0 -4.1434087356338823e-16
vn 0 1 0
vn 0 -1 0
vn -0.866025403784439 0 0.4999999999999995
vn 0 1 0
vn 0 -1 0
vn -0.4999999999999998 0 0.8660254037844388
vn 0 1 0
vn 0 -1 0
vn 0 0 1
vn 0 1 0
usemtl redox_furnace
f 103/337/91 101/338/91 99/339/91
f 101/340/92 103/341/92 104/342/92 102/343/92
f 102/344/93 104/345/93 100/346/93
f 105/347/94 103/348/94 99/349/94
f 103/350/95 105/351/95 106/352/95 104/353/95
f 104/354/96 106/355/96 100/356/96
f 107/357/97 105/358/97 99/359/97
f 105/360/98 107/361/98 108/362/98 106/363/98
f 106/364/99 108/365/99 100/366/99
f 109/367/100 107/368/100 99/369/100
f 107/370/101 109/371/101 110/372/101 108/373/101
f 108/374/102 110/375/102 100/376/102
f 111/377/103 109/378/103 99/379/103
f 109/380/104 111/381/104 112/382/104 110/383/104
f 110/384/105 112/385/105 100/386/105
f 113/387/106 111/388/106 99/389/106
f 111/390/107 113/391/107 114/392/107 112/393/107
f 112/394/108 114/395/108 100/396/108
f 115/397/109 113/398/109 99/399/109
f 113/400/110 115/401/110 116/402/110 114/403/110
f 114/404/111 116/405/111 100/406/111
f 117/407/112 115/408/112 99/409/112
f 115/410/113 117/411/113 118/412/113 116/413/113
f 116/414/114 118/415/114 100/416/114
f 119/417/115 117/418/115 99/419/115
f 117/420/116 119/421/116 120/422/116 118/423/116
f 118/424/117 120/425/117 100/426/117
f 121/427/118 119/428/118 99/429/118
f 119/430/119 121/431/119 122/432/119 120/433/119
f 120/434/120 122/435/120 100/436/120
f 123/437/121 121/438/121 99/439/121
f 121/440/122 123/441/122 124/442/122 122/443/122
f 122/444/123 124/445/123 100/446/123
f 101/447/124 123/448/124 99/449/124
f 123/450/125 101/451/125 102/452/125 124/453/125
f 124/454/126 102/455/126 100/456/126
o cylinder
v -1.4869058365515489e-18 2.1875 1
v -1.4869058365515489e-18 2.9375 1
v 0.050240473580835485 2.1875 1.1875
v 0.050240473580835485 2.9375 1.1875
v 0.13725952641916447 2.1875 1.1372595264191645
v 0.13725952641916447 2.9375 1.1372595264191645
v 0.1875 2.1875 1.0502404735808355
v 0.1875 2.9375 1.0502404735808355
v 0.1875 2.1875 0.9497595264191645
v 0.1875 2.9375 0.9497595264191645
v 0.13725952641916447 2.1875 0.8627404735808355
v 0.13725952641916447 2.9375 0.8627404735808355
v 0.050240473580835554 2.1875 0.8125000000000001
v 0.050240473580835554 2.9375 0.8125000000000001
v -0.05024047358083542 2.1875 0.8125
v -0.05024047358083542 2.9375 0.8125
v -0.13725952641916447 2.1875 0.8627404735808355
v -0.13725952641916447 2.9375 0.8627404735808355
v -0.18749999999999994 2.1875 0.9497595264191645
v -0.18749999999999994 2.9375 0.9497595264191645
v -0.1875 2.1875 1.0502404735808355
v -0.1875 2.9375 1.0502404735808355
v -0.1372595264191645 2.1875 1.1372595264191645
v -0.1372595264191645 2.9375 1.1372595264191645
v -0.050240473580835485 2.1875 1.1875
v -0.050240473580835485 2.9375 1.1875
vt 0.0405953125 0.24372031250000004
vt 0.0297171875 0.25
vt 0.0234375 0.2265625
vt 0.2836234375 0.1796875
vt 0.2961828125 0.1796875
vt 0.2961828125 0.2734375
vt 0.2836234375 0.2734375
vt 0.07659218749999999 0.203125
vt 0.08747031250000001 0.20940468749999996
vt 0.0703125 0.2265625
vt 0.046875 0.23284218749999996
vt 0.0405953125 0.24372031250000004
vt 0.0234375 0.2265625
vt 0.7272546875 0.90625
vt 0.7398140625 0.90625
vt 0.7398140625 1
vt 0.7272546875 1
vt 0.08747031250000001 0.20940468749999996
vt 0.09375 0.22028281250000004
vt 0.0703125 0.2265625
vt 0.046875 0.22028281250000004
vt 0.046875 0.23284218749999996
vt 0.0234375 0.2265625
vt 0.7398140625 0.90625
vt 0.7523734375 0.90625
vt 0.7523734375 1
vt 0.7398140625 1
vt 0.09375 0.22028281250000004
vt 0.09375 0.23284218749999996
vt 0.0703125 0.2265625
vt 0.0405953125 0.20940468749999996
vt 0.046875 0.22028281250000004
vt 0.0234375 0.2265625
vt 0.7523734375 0.90625
vt 0.7649328125 0.90625
vt 0.7649328125 1
vt 0.7523734375 1
vt 0.09375 0.23284218749999996
vt 0.08747031250000001 0.24372031250000004
vt 0.0703125 0.2265625
vt 0.0297171875 0.203125
vt 0.0405953125 0.20940468749999996
vt 0.0234375 0.2265625
vt 0.2975671875 0.1796875
vt 0.3101265625 0.1796875
vt 0.3101265625 0.2734375
vt 0.2975671875 0.2734375
vt 0.08747031250000001 0.24372031250000004
vt 0.07659218749999999 0.25
vt 0.0703125 0.2265625
vt 0.0171578125 0.203125
vt 0.0297171875 0.203125
vt 0.0234375 0.2265625
vt 0.3101265625 0.1796875
vt 0.3226859375 0.1796875
vt 0.3226859375 0.2734375
vt 0.3101265625 0.2734375
vt 0.07659218749999999 0.25
vt 0.06403281250000001 0.25
vt 0.0703125 0.2265625
vt 0.006279687499999999 0.20940468749999996
vt 0.0171578125 0.203125
vt 0.0234375 0.2265625
vt 0.3226859375 0.1796875
vt 0.3352453125 0.1796875
vt 0.3352453125 0.2734375
vt 0.3226859375 0.2734375
vt 0.06403281250000001 0.25
vt 0.0531546875 0.24372031250000004
vt 0.0703125 0.2265625
vt 0 0.22028281250000004
vt 0.006279687499999999 0.20940468749999996
vt 0.0234375 0.2265625
vt 0.1022546875 0.171875
vt 0.11481406250000001 0.171875
vt 0.11481406250000001 0.265625
vt 0.1022546875 0.265625
vt 0.0531546875 0.24372031250000004
vt 0.046875 0.23284218749999996
vt 0.0703125 0.2265625
vt 0 0.23284218749999996
vt 0 0.22028281250000004
vt 0.0234375 0.2265625
vt 0.11481406250000001 0.171875
vt 0.1273734375 0.171875
vt 0.1273734375 0.265625
vt 0.11481406250000001 0.265625
vt 0.046875 0.23284218749999996
vt 0.046875 0.22028281250000004
vt 0.0703125 0.2265625
vt 0.006279687499999999 0.24372031250000004
vt 0 0.23284218749999996
vt 0.0234375 0.2265625
vt 0.1273734375 0.171875
vt 0.1399328125 0.171875
vt 0.1399328125 0.265625
vt 0.1273734375 0.265625
vt 0.046875 0.22028281250000004
vt 0.0531546875 0.20940468749999996
vt 0.0703125 0.2265625
vt 0.0171578125 0.25
vt 0.006279687499999999 0.24372031250000004
vt 0.0234375 0.2265625
vt 0.2585046875 0.1796875
vt 0.2710640625 0.1796875
vt 0.2710640625 0.2734375
vt 0.2585046875 0.2734375
vt 0.0531546875 0.20940468749999996
vt 0.06403281250000001 0.203125
vt 0.0703125 0.2265625
vt 0.0297171875 0.25
vt 0.0171578125 0.25
vt 0.0234375 0.2265625
vt 0.2710640625 0.1796875
vt 0.2836234375 0.1796875
vt 0.2836234375 0.2734375
vt 0.2710640625 0.2734375
vt 0.06403281250000001 0.203125
vt 0.07659218749999999 0.203125
vt 0.0703125 0.2265625
vn 0 -1 0
vn 0.5 0 0.8660254037844388
vn 0 1 0
vn 0 -1 0
vn 0.8660254037844386 0 0.5000000000000002
vn 0 1 0
vn 0 -1 0
vn 1 0 0
vn 0 1 0
vn 0 -1 0
vn 0.8660254037844386 0 -0.5000000000000003
vn 0 1 0
vn 0 -1 0
vn 0.5 0 -0.8660254037844387
vn 0 1 0
vn 0 -1 0
vn 2.762272490422586e-16 0 -1
vn 0 1 0
vn 0 -1 0
vn -0.49999999999999917 0 -0.866025403784439
vn 0 1 0
vn 0 -1 0
vn -0.866025403784439 0 -0.49999999999999956
vn 0 1 0
vn 0 -1 0
vn -1 0 -5.524544980845178e-16
vn 0 1 0
vn 0 -1 0
vn -0.8660254037844389 0 0.4999999999999996
vn 0 1 0
vn 0 -1 0
vn -0.49999999999999983 0 0.8660254037844388
vn 0 1 0
vn 0 -1 0
vn 0 0 1
vn 0 1 0
usemtl redox_furnace
f 129/457/127 127/458/127 125/459/127
f 127/460/128 129/461/128 130/462/128 128/463/128
f 128/464/129 130/465/129 126/466/129
f 131/467/130 129/468/130 125/469/130
f 129/470/131 131/471/131 132/472/131 130/473/131
f 130/474/132 132/475/132 126/476/132
f 133/477/133 131/478/133 125/479/133
f 131/480/134 133/481/134 134/482/134 132/483/134
f 132/484/135 134/485/135 126/486/135
f 135/487/136 133/488/136 125/489/136
f 133/490/137 135/491/137 136/492/137 134/493/137
f 134/494/138 136/495/138 126/496/138
f 137/497/139 135/498/139 125/499/139
f 135/500/140 137/501/140 138/502/140 136/503/140
f 136/504/141 138/505/141 126/506/141
f 139/507/142 137/508/142 125/509/142
f 137/510/143 139/511/143 140/512/143 138/513/143
f 138/514/144 140/515/144 126/516/144
f 141/517/145 139/518/145 125/519/145
f 139/520/146 141/521/146 142/522/146 140/523/146
f 140/524/147 142/525/147 126/526/147
f 143/527/148 141/528/148 125/529/148
f 141/530/149 143/531/149 144/532/149 142/533/149
f 142/534/150 144/535/150 126/536/150
f 145/537/151 143/538/151 125/539/151
f 143/540/152 145/541/152 146/542/152 144/543/152
f 144/544/153 146/545/153 126/546/153
f 147/547/154 145/548/154 125/549/154
f 145/550/155 147/551/155 148/552/155 146/553/155
f 146/554/156 148/555/156 126/556/156
f 149/557/157 147/558/157 125/559/157
f 147/560/158 149/561/158 150/562/158 148/563/158
f 148/564/159 150/565/159 126/566/159
f 127/567/160 149/568/160 125/569/160
f 149/570/161 127/571/161 128/572/161 150/573/161
f 150/574/162 128/575/162 126/576/162
o cone
v 0 2.125 1
v 0 2.875 1
v 0.13397459621556132 2.125 1.5
v 0.3660254037844386 2.125 1.3660254037844386
v 0.49999999999999994 2.125 1.1339745962155614
v 0.49999999999999994 2.125 0.8660254037844386
v 0.36602540378443865 2.125 0.6339745962155614
v 0.1339745962155615 2.125 0.5000000000000001
v -0.13397459621556113 2.125 0.5
v -0.3660254037844386 2.125 0.6339745962155613
v -0.49999999999999994 2.125 0.8660254037844387
v -0.5 2.125 1.1339745962155612
v -0.3660254037844387 2.125 1.3660254037844386
v -0.1339745962155613 2.125 1.5
vt 0.6082531250000001 0.8582531250000001
vt 0.5792468749999999 0.875
vt 0.5625 0.8125
vt 0.169090625 0.27013906249999997
vt 0.20113650863776789 0.27988034737095724
vt 0.15234375 0.3828125
vt 0.625 0.8292468749999999
vt 0.6082531250000001 0.8582531250000001
vt 0.5625 0.8125
vt 0.7207384913622321 0.7173803473709572
vt 0.752784375 0.7076390625
vt 0.76953125 0.8203125
vt 0.625 0.7957531250000001
vt 0.625 0.8292468749999999
vt 0.5625 0.8125
vt 0.752784375 0.7076390625
vt 0.786278125 0.7076390625
vt 0.76953125 0.8203125
vt 0.6082531250000001 0.7667468749999999
vt 0.625 0.7957531250000001
vt 0.5625 0.8125
vt 0.786278125 0.7076390625
vt 0.8183240086377679 0.7173803473709572
vt 0.76953125 0.8203125
vt 0.5792468749999999 0.75
vt 0.6082531250000001 0.7667468749999999
vt 0.5625 0.8125
vt 0.15823849136223211 0.17831784737095724
vt 0.190284375 0.16857656249999997
vt 0.20703125 0.28125
vt 0.545753125 0.75
vt 0.5792468749999999 0.75
vt 0.5625 0.8125
vt 0.190284375 0.16857656249999997
vt 0.223778125 0.16857656249999997
vt 0.20703125 0.28125
vt 0.516746875 0.7667468749999999
vt 0.545753125 0.75
vt 0.5625 0.8125
vt 0.223778125 0.16857656249999997
vt 0.2558240086377679 0.17831784737095724
vt 0.20703125 0.28125
vt 0.5 0.7957531250000001
vt 0.516746875 0.7667468749999999
vt 0.5625 0.8125
vt 0.4082384913622321 0.17831784737095724
vt 0.440284375 0.16857656249999997
vt 0.45703125 0.28125
vt 0.5 0.8292468749999999
vt 0.5 0.7957531250000001
vt 0.5625 0.8125
vt 0.440284375 0.16857656249999997
vt 0.473778125 0.16857656249999997
vt 0.45703125 0.28125
vt 0.516746875 0.8582531250000001
vt 0.5 0.8292468749999999
vt 0.5625 0.8125
vt 0.473778125 0.16857656249999997
vt 0.5058240086377679 0.17831784737095724
vt 0.45703125 0.28125
vt 0.545753125 0.875
vt 0.516746875 0.8582531250000001
vt 0.5625 0.8125
vt 0.1035509913622321 0.27988034737095724
vt 0.135596875 0.27013906249999997
vt 0.15234375 0.3828125
vt 0.5792468749999999 0.875
vt 0.545753125 0.875
vt 0.5625 0.8125
vt 0.135596875 0.27013906249999997
vt 0.169090625 0.27013906249999997
vt 0.15234375 0.3828125
vn 0 -1 0
vn 0.41602514716892175 0.5547001962252291 0.7205766921228922
vn 0 -1 0
vn 0.7205766921228922 0.554700196225229 0.41602514716892175
vn 0 -1 0
vn 0.8320502943378437 0.554700196225229 0
vn 0 -1 0
vn 0.7205766921228922 0.5547001962252291 -0.41602514716892186
vn 0 -1 0
vn 0.4160251471689219 0.5547001962252291 -0.7205766921228921
vn 0 -1 0
vn 3.4475244580461617e-16 0.5547001962252291 -0.8320502943378437
vn 0 -1 0
vn -0.41602514716892147 0.554700196225229 -0.7205766921228923
vn 0 -1 0
vn -0.7205766921228923 0.5547001962252291 -0.41602514716892175
vn 0 -1 0
vn -0.8320502943378438 0.5547001962252291 -1.7237622290230828e-16
vn 0 -1 0
vn -0.7205766921228923 0.554700196225229 0.4160251471689215
vn 0 -1 0
vn -0.4160251471689219 0.5547001962252291 0.7205766921228922
vn 0 -1 0
vn 0 0.554700196225229 0.8320502943378438
usemtl redox_furnace
f 154/577/163 153/578/163 151/579/163
f 153/580/164 154/581/164 152/582/164
f 155/583/165 154/584/165 151/585/165
f 154/586/166 155/587/166 152/588/166
f 156/589/167 155/590/167 151/591/167
f 155/592/168 156/593/168 152/594/168
f 157/595/169 156/596/169 151/597/169
f 156/598/170 157/599/170 152/600/170
f 158/601/171 157/602/171 151/603/171
f 157/604/172 158/605/172 152/606/172
f 159/607/173 158/608/173 151/609/173
f 158/610/174 159/611/174 152/612/174
f 160/613/175 159/614/175 151/615/175
f 159/616/176 160/617/176 152/618/176
f 161/619/177 160/620/177 151/621/177
f 160/622/178 161/623/178 152/624/178
f 162/625/179 161/626/179 151/627/179
f 161/628/180 162/629/180 152/630/180
f 163/631/181 162/632/181 151/633/181
f 162/634/182 163/635/182 152/636/182
f 164/637/183 163/638/183 151/639/183
f 163/640/184 164/641/184 152/642/184
f 153/643/185 164/644/185 151/645/185
f 164/646/186 153/647/186 152/648/186
o cube
v 0.1875 1.3125 0.5625
v 0.1875 1.3125 0.0625
v 0.1875 1 0.5625
v 0.1875 1 0.0625
v -0.1875 1.3125 0.0625
v -0.1875 1.3125 0.5625
v -0.1875 1 0.0625
v -0.1875 1 0.5625
vt 0.75 0.90625
vt 0.796875 0.90625
vt 0.796875 0.8671875
vt 0.75 0.8671875
vt 0.71875 0.703125
vt 0.78125 0.703125
vt 0.78125 0.6640625
vt 0.71875 0.6640625
vt 0.765625 1
vt 0.8125 1
vt 0.8125 0.9609375
vt 0.765625 0.9609375
vt 0.71875 0.3671875
vt 0.78125 0.3671875
vt 0.78125 0.328125
vt 0.71875 0.328125
vt 0.78125 0.5
vt 0.734375 0.5
vt 0.734375 0.5625
vt 0.78125 0.5625
vt 0.78125 0.5
vt 0.734375 0.5
vt 0.734375 0.4375
vt 0.78125 0.4375
vn 0 0 -1
vn 1 0 0
vn 0 0 1
vn -1 0 0
vn 0 1 0
vn 0 -1 0
usemtl redox_furnace
f 168/652/187 171/651/187 169/650/187 166/649/187
f 167/656/188 168/655/188 166/654/188 165/653/188
f 172/660/189 167/659/189 165/658/189 170/657/189
f 171/664/190 172/663/190 170/662/190 169/661/190
f 170/668/191 165/667/191 166/666/191 169/665/191
f 171/672/192 168/671/192 167/670/192 172/669/192
o cube
v 0.1875 1.4458158537048298 0.5492028856155446
v 0.1875 1.3164063311535694 0.06623997247101032
v 0.1875 1.2647047612756295 0.5977314565722672
v 0.1875 1.135295238724369 0.11476854342773293
v -0.1875 1.3164063311535694 0.06623997247101032
v -0.1875 1.4458158537048298 0.5492028856155446
v -0.1875 1.135295238724369 0.11476854342773293
v -0.1875 1.2647047612756295 0.5977314565722672
vt 0.7890625 0.65625
vt 0.8359375 0.65625
vt 0.8359375 0.6328125
vt 0.7890625 0.6328125
vt 0.78125 0.703125
vt 0.84375 0.703125
vt 0.84375 0.6796875
vt 0.78125 0.6796875
vt 0.7890625 0.6328125
vt 0.8359375 0.6328125
vt 0.8359375 0.609375
vt 0.7890625 0.609375
vt 0.78125 0.6796875
vt 0.84375 0.6796875
vt 0.84375 0.65625
vt 0.78125 0.65625
vt 0.3828125 0.1953125
vt 0.3359375 0.1953125
vt 0.3359375 0.2578125
vt 0.3828125 0.2578125
vt 0.7890625 0.65625
vt 0.7421875 0.65625
vt 0.7421875 0.59375
vt 0.7890625 0.59375
vn 0 -0.25881904510252074 -0.9659258262890683
vn 1 0 0
vn 0 0.25881904510252074 0.9659258262890683
vn -1 0 0
vn 0 0.9659258262890683 -0.25881904510252074
vn 0 -0.9659258262890683 0.25881904510252074
usemtl redox_furnace
f 176/676/193 179/675/193 177/674/193 174/673/193
f 175/680/194 176/679/194 174/678/194 173/677/194
f 180/684/195 175/683/195 173/682/195 178/681/195
f 179/688/196 180/687/196 178/686/196 177/685/196
f 178/692/197 173/691/197 174/690/197 177/689/197
f 179/696/198 176/695/198 175/694/198 180/693/198
o cube
v -0.9375 1.5 0.96875
v -0.9375 1.5 0.5
v -0.9375 1.375 0.96875
v -0.9375 1.375 0.5
v -1.0625 1.5 0.5
v -1.0625 1.5 0.96875
v -1.0625 1.375 0.5
v -1.0625 1.375 0.96875
vt 0.125 0.5
vt 0.140625 0.5
vt 0.140625 0.484375
vt 0.125 0.484375
vt 0 0.203125
vt 0.0625 0.203125
vt 0.0625 0.1875
vt 0 0.1875
vt 0.5 0.875
vt 0.515625 0.875
vt 0.515625 0.859375
vt 0.5 0.859375
vt 0.796875 0.90625
vt 0.859375 0.90625
vt 0.859375 0.890625
vt 0.796875 0.890625
vt 0.1171875 0.3125
vt 0.1015625 0.3125
vt 0.1015625 0.375
vt 0.1171875 0.375
vt 0.203125 0.375
vt 0.1875 0.375
vt 0.1875 0.3125
vt 0.203125 0.3125
vn 0 0 -1
vn 1 0 0
vn 0 0 1
vn -1 0 0
vn 0 1 0
vn 0 -1 0
usemtl redox_furnace
f 184/700/199 187/699/199 185/698/199 182/697/199
f 183/704/200 184/703/200 182/702/200 181/701/200
f 188/708/201 183/707/201 181/706/201 186/705/201
f 187/712/202 188/711/202 186/710/202 185/709/202
f 186/716/203 181/715/203 182/714/203 185/713/203
f 187/720/204 184/719/204 183/718/204 188/717/204
o cube
v -0.46875 1.5 1.0937500000000002
v -0.46875 1.5 0.9687499999999998
v -0.46875 1.375 1.0937500000000002
v -0.46875 1.375 0.9687499999999998
v -1.0625 1.5 0.9687499999999998
v -1.0625 1.5 1.0937500000000002
v -1.0625 1.375 0.9687499999999998
v -1.0625 1.375 1.0937500000000002
vt 0.859375 0.3671875
vt 0.78125 0.3671875
vt 0.78125 0.3515625
vt 0.859375 0.3515625
vt 0.4765625 0.40625
vt 0.4921875 0.40625
vt 0.4921875 0.390625
vt 0.4765625 0.390625
vt 0.78125 0.3515625
vt 0.859375 0.3515625
vt 0.859375 0.3359375
vt 0.78125 0.3359375
vt 0.3671875 0.3984375
vt 0.3828125 0.3984375
vt 0.3828125 0.3828125
vt 0.3671875 0.3828125
vt 0.859375 0.3203125
vt 0.78125 0.3203125
vt 0.78125 0.3359375
vt 0.859375 0.3359375
vt 0.8671875 0.796875
vt 0.7890625 0.796875
vt 0.7890625 0.78125
vt 0.8671875 0.78125
vn 0 0 -1
vn 1 0 0
vn 0 0 1
vn -1 0 0
vn 0 1 0
vn 0 -1 0
usemtl redox_furnace
f 192/724/205 195/723/205 193/722/205 190/721/205
f 191/728/206 192/727/206 190/726/206 189/725/206
f 196/732/207 191/731/207 189/730/207 194/729/207
f 195/736/208 196/735/208 194/734/208 193/733/208
f 194/740/209 189/739/209 190/738/209 193/737/209
f 195/744/210 192/743/210 191/742/210 196/741/210
o cube
v -0.25 0.5625 0.12499999999999989
v -0.25 0.5625 0.03125
v -0.25 0.4375 0.12499999999999989
v -0.25 0.4375 0.03125
v -0.375 0.5625 0.03125
v -0.375 0.5625 0.12499999999999989
v -0.375 0.4375 0.03125
v -0.375 0.4375 0.12499999999999989
vt 0.46875 0.5
vt 0.484375 0.5
vt 0.484375 0.484375
vt 0.46875 0.484375
vt 0.5 0.859375
vt 0.5078125 0.859375
vt 0.5078125 0.84375
vt 0.5 0.84375
vt 0.5 0.53125
vt 0.515625 0.53125
vt 0.515625 0.515625
vt 0.5 0.515625
vt 0.5 0.78125
vt 0.5078125 0.78125
vt 0.5078125 0.765625
vt 0.5 0.765625
vt 0.15625 0.4921875
vt 0.140625 0.4921875
vt 0.140625 0.5
vt 0.15625 0.5
vt 0.234375 0.5
vt 0.21875 0.5
vt 0.21875 0.4921875
vt 0.234375 0.4921875
vn 0 0 -1
vn 1 0 0
vn 0 0 1
vn -1 0 0
vn 0 1 0
vn 0 -1 0
usemtl redox_furnace
f 200/748/211 203/747/211 201/746/211 198/745/211
f 199/752/212 200/751/212 198/750/212 197/749/212
f 204/756/213 199/755/213 197/754/213 202/753/213
f 203/760/214 204/759/214 202/758/214 201/757/214
f 202/764/215 197/763/215 198/762/215 201/761/215
f 203/768/216 200/767/216 199/766/216 204/765/216
o cube
v 0.3125 0.875 0.12499999999999989
v 0.3125 0.875 0.03125
v 0.3125 0.5625 0.12499999999999989
v 0.3125 0.5625 0.03125
v 0.1875 0.875 0.03125
v 0.1875 0.875 0.12499999999999989
v 0.1875 0.5625 0.03125
v 0.1875 0.5625 0.12499999999999989
vt 0.4765625 0.28125
vt 0.4921875 0.28125
vt 0.4921875 0.2421875
vt 0.4765625 0.2421875
vt 0.6015625 0.53125
vt 0.609375 0.53125
vt 0.609375 0.4921875
vt 0.6015625 0.4921875
vt 0.5703125 0.21875
vt 0.5859375 0.21875
vt 0.5859375 0.1796875
vt 0.5703125 0.1796875
vt 0.1171875 0.375
vt 0.125 0.375
vt 0.125 0.3359375
vt 0.1171875 0.3359375
vt 0.515625 0.5078125
vt 0.5 0.5078125
vt 0.5 0.515625
vt 0.515625 0.515625
vt 0.53125 0.875
vt 0.515625 0.875
vt 0.515625 0.8671875
vt 0.53125 0.8671875
vn 0 0 -1
vn 1 0 0
vn 0 0 1
vn -1 0 0
vn 0 1 0
vn 0 -1 0
usemtl redox_furnace
f 208/772/217 211/771/217 209/770/217 206/769/217
f 207/776/218 208/775/218 206/774/218 205/773/218
f 212/780/219 207/779/219 205/778/219 210/777/219
f 211/784/220 212/783/220 210/782/220 209/781/220
f 210/788/221 205/787/221 206/786/221 209/785/221
f 211/792/222 208/791/222 207/790/222 212/789/222
o cube
v 0.3125 0.5625 0.4999999999999999
v 0.3125 0.5625 0.03125
v 0.3125 0.4375 0.4999999999999999
v 0.3125 0.4375 0.03125
v 0.1875 0.5625 0.03125
v 0.1875 0.5625 0.4999999999999999
v 0.1875 0.4375 0.03125
v 0.1875 0.4375 0.4999999999999999
vt 0.234375 0.5
vt 0.25 0.5
vt 0.25 0.484375
vt 0.234375 0.484375
vt 0.796875 0.78125
vt 0.8515625 0.78125
vt 0.8515625 0.765625
vt 0.796875 0.765625
vt 0.5 0.765625
vt 0.515625 0.765625
vt 0.515625 0.75
vt 0.5 0.75
vt 0.796875 0.5625
vt 0.8515625 0.5625
vt 0.8515625 0.546875
vt 0.796875 0.546875
vt 0.2578125 0.21875
vt 0.2421875 0.21875
vt 0.2421875 0.2734375
vt 0.2578125 0.2734375
vt 0.171875 0.265625
vt 0.15625 0.265625
vt 0.15625 0.2109375
vt 0.171875 0.2109375
vn 0 0 -1
vn 1 0 0
vn 0 0 1
vn -1 0 0
vn 0 1 0
vn 0 -1 0
usemtl redox_furnace
f 216/796/223 219/795/223 217/794/223 214/793/223
f 215/800/224 216/799/224 214/798/224 213/797/224
f 220/804/225 215/803/225 213/802/225 218/801/225
f 219/808/226 220/807/226 218/806/226 217/805/226
f 218/812/227 213/811/227 214/810/227 217/809/227
f 219/816/228 216/815/228 215/814/228 220/813/228
o cube
v -0.125 0.5625 0.4999999999999999
v -0.125 0.5625 0.03125
v -0.125 0.4375 0.4999999999999999
v -0.125 0.4375 0.03125
v -0.25 0.5625 0.03125
v -0.25 0.5625 0.4999999999999999
v -0.25 0.4375 0.03125
v -0.25 0.4375 0.4999999999999999
vt 0.3671875 0.5
vt 0.3828125 0.5
vt 0.3828125 0.484375
vt 0.3671875 0.484375
vt 0.796875 0.546875
vt 0.8515625 0.546875
vt 0.8515625 0.53125
vt 0.796875 0.53125
vt 0.5 0.6328125
vt 0.515625 0.6328125
vt 0.515625 0.6171875
vt 0.5 0.6171875
vt 0.796875 0.53125
vt 0.8515625 0.53125
vt 0.8515625 0.515625
vt 0.796875 0.515625
vt 0.4140625 0.203125
vt 0.3984375 0.203125
vt 0.3984375 0.2578125
vt 0.4140625 0.2578125
vt 0.5703125 0.21875
vt 0.5546875 0.21875
vt 0.5546875 0.1640625
vt 0.5703125 0.1640625
vn 0 0 -1
vn 1 0 0
vn 0 0 1
vn -1 0 0
vn 0 1 0
vn 0 -1 0
usemtl redox_furnace
f 224/820/229 227/819/229 225/818/229 222/817/229
f 223/824/230 224/823/230 222/822/230 221/821/230
f 228/828/231 223/827/231 221/826/231 226/825/231
f 227/832/232 228/831/232 226/830/232 225/829/232
f 226/836/233 221/835/233 222/834/233 225/833/233
f 227/840/234 224/839/234 223/838/234 228/837/234